<svg xmlns="http://www.w3.org/2000/svg" xml:space="preserve" x="0px" y="0px" viewBox="0 0 939 626"><path fill="#050706" d="M449.248 626.727c-25.936.273-51.623.273-77.78.273-1.216-.839-2.06-1.1-3.262-.212-121.188.212-242.17.196-363.152.3-3.306.002-4.157-.5-4.155-4.033.113-205.97.117-411.94-.017-617.909C.88 1.251 2.034.927 5.352.928c310.122.077 620.243.079 930.364-.016 3.51-.002 4.39.6 4.388 4.302a523598 523598 0 0 0 .007 617.41c.002 4.02-1.21 4.458-4.733 4.456-129.813-.095-259.627-.08-389.91-.08-1.397-.96-1.498-2.102-.942-3.223 1.92-3.872-.673-4.646-3.534-5.177-1.47-.273-2.983-.17-4.478-.178a6760 6760 0 0 0-64.238-.024c-3 .013-5.928-.034-8.546 1.957-1.516 1.152-3.518.764-5.337.573-4.41-.462-7.772.719-9.145 5.8" opacity="1.000000"/><path fill="#030707" d="M449.469 627c-1.032-1.382-1.815-2.72-2.111-4.156-.552-2.676.004-4.805 3.463-4.322 1.512.211 2.904-.096 4.38-.266 10.13-1.166 20.119-3.162 30.505-2.531 8.856.538 17.805.27 26.785-.534 5.929-.53 12.446.67 18.717.8 3.16.065 6.336-.143 9.48.093 3.303.248 7.096.44 8.711 3.806 1.78 3.707-3.095 4.06-4.272 6.794-31.815.316-63.502.316-95.658.316m-81.094 0c.304-1.469 1.106-2.298 2.514-.265-.639.265-1.389.265-2.514.265M652.15 498.656c1.378.783 2.561 1.578 2.49 2.761-.441 7.372 1.18 14.984-5.314 21.235-5.07 4.881-10.184 9.942-12.598 17.184-2.262 6.786-3.642 6.917-10.298 4.226-.562-.227-1.554-.427-1.842-.138-4.704 4.727-10.404 1.628-15.636 2.094-1.392.125-3.066-.497-3.939 1.205.563 2.995 5.39.477 5 3.5-.284 2.204-4.057 1.236-5.392 2.847-5.745 6.929-14.836 7.865-21.852 12.479-1.533 1.008-3.206 1.57-5.184 1.393-2.242-.201-2.994-.05-1.922 3.021 1.577 4.518-3.673 5.46-6.16 6.096-3.597.92-8.594 3.877-11.23-2.179-.111-.257-.49-.474-.788-.563-1.671-.498-9.238 5.26-9.436 7.186-1.623 15.75-4.253 13.147-16.03 12.72-5.8-.21-11.53-1.594-17.203.686-1.378.554-2.637.057-3.71-.84-1.963-1.641-4.392-1.994-6.618-1.475-4.36 1.016-7.954-.867-11.774-2.227-2.142-.762-2.395-2.427-2.89-4.23-1.812-6.603-5.894-9.003-12.26-7.3-2.842.76-2.365 3.198-2.575 5.307-.232 2.32.973 6.387-3.946 3.036-1.977-1.346-3.422.301-4.134 2.21-.885 2.38-2.295 3.969-5.006 4.19-2.373.195-2.852 1.936-2.877 3.934-.033 2.662-.025 5.326-.128 7.986-.037.962-.181 2.224-1.52 2.1-1.281-.119-1.23-1.377-1.258-2.355-.019-.657.12-1.32.204-1.98.816-6.458-.118-6.426-6.623-6.75-6.63-.33-13.561.269-19.968-2.526-2.618-1.143-5.247-2.17-7.74.602-1.276 1.418-3.16 2.15-4.866.539-1.68-1.586-1.016-3.677.079-5.016 1.804-2.207 3.64-3.688.497-6.514-1.304-1.172.211-3.758 1.193-5.894.724-1.197 1.603-1.374 2.86-1.453.76.118 1.181.233 1.891.48.481.204.67.29 1.137.507.654.292 1.023.466 1.667.77.657.264 1.037.4 1.707.623.99.368 1.69.66 2.782.526.948-.087 1.577.054 2.536.069 1.61.04 2.896.097 4.513-.019 1.006-.072 1.68-.12 2.7-.25 2.504.077 4.506.995 6.697 1.024 2.983.04 5.197-.822 6.073-4.315 2.098-2.67 4.542-4.565 6.639-7.205.408-.56.627-.883.974-1.46.236-.409.339-.567.599-.96.366-.557.56-.889.85-1.51.679-1.857 1.568-3.283 2.33-5.074.176-.608.253-.954.304-1.575-.04-.853-.01-1.435-.099-2.342-.054-1.959-.07-3.59-.319-5.63-.341-46.117-.124-91.814-.167-137.51-.003-3.251 1.577-6.569-.357-10.253.824-19.22.196-37.956.284-56.688.02-4.27 1.03-8.595-.332-13.334.676-5.789.404-11.112.372-16.42-.146-24.243.417-48.49-.367-73.211-.292-2.743-.367-4.995.488-7.648 2.92-7.103 2.072-13.945 1.058-20.753-.212-1.418-.887-2.797-1.002-4.728-.107-2.202-.075-3.962-.06-6.149.152-3.495.208-6.563-.006-10.068-.112-6.563-.094-12.687-.024-19.27-.283-6.653 1.675-12.599 1.962-18.758.368-7.88-1.183-15.537-1.902-23.713-.121-2.23-.184-4.046-1-6.087-.5-1.108-.795-1.929-1.397-2.947-.9-1.782-2.081-2.948-3.453-4.347-.37-.344-.52-.477-.891-.81a100 100 0 0 1-.866-.79 54 54 0 0 0-.846-.764 13 13 0 0 0-1.346-1.002c-.4-.243-.561-.338-.954-.597-.38-.28-.53-.396-.906-.68a12 12 0 0 0-.95-.616c-.417-.22-.587-.303-1.002-.521-.712-.401-1.16-.702-1.975-.897a11 11 0 0 1-1.16-.303c-1.488-.536-2.756-.548-4.34-.747a25 25 0 0 0-2.046-.392c-3.723-.571-7.102-.53-10.857-.235-.862.023-1.352.008-2.194-.113-3.114-1.85-5.573-2.732-8.58.036-2.32 2.136-6.425 1.086-8.903 4.09-.25.742-.411 1.16-.797 1.852a7 7 0 0 1-1.344 1.483c-.44.314-.626.423-1.081.702-.623.394-.974.62-1.578 1.018-.77.458-1.33.643-2.106 1.014-.7.375-1.18.584-1.742 1.17a9 9 0 0 1-.86.802c-.41.313-.582.434-1.029.721-1.964 1.255-3.476 2.563-5.143 4.198-.348.43-.484.606-.837 1.03-.37.407-.524.563-.922.94a10 10 0 0 1-1.043.782c-1.422.793-2.315 1.78-3.794 2.466-1.18.27-2.012.528-3.04 1.213a4.4 4.4 0 0 1-1.276.455c-1.476.145-2.614.132-4.101.109-3.847-.7-7.354-1.078-11.251-.204-.864.065-1.36.04-2.211-.158-.807-.38-1.197-.701-1.714-1.427.38-3.151 2.525-3.328 4.798-3.35 1.664-.016 3.335-.025 4.987-.194 1.44-.147 2.553-.926 2.716-2.476.19-1.8-.861-2.723-2.51-3.173-1.497-.41-4.028.257-4.082-1.886-.06-2.442 3.004-1.483 4.204-2.525 4.59-3.984 12.738-4.175 13.217-12.699.133-2.374 2.566-3.93 5.157-3.932 3.441-.002 6.585-.453 9.168-3.059.619-.625 1.854-.989 2.764-.92 7.123.54 14.193-2.099 21.355-.241 1.757.455 3.625.4 5.132 1.64 1.951 1.605 3.94 1.619 5.889-.004 1.472-1.226 3.258-1.716 5.059-1.99 3.723-.563 7.412-.893 7.37-6.113-.01-1.447 1.415-2.172 2.888-2.25 2.063-.107 3.91.777 4.276 2.724.916 4.877 4.345 6.4 8.537 7.006 2.583.373 3.68 1.774 4.059 4.247.687 4.472 3.656 7.312 7.279 9.646 1.5.966 3.36 1.778 4.652.668 3.43-2.948 6.043-1.215 8.803.88 2.162 1.64 2.96.532 3.088-1.653.137-2.347-.024-4.646-1.006-6.85-1.62-3.64-.95-6.592 2.966-8.154 3.54-1.412 5.714.02 6.098 4.289 2.522-1.784 2.603-5.796 6.368-4.59 2.663.853 3.421 2.802 3.875 5.249.332 1.784 1.076 3.49 1.701 5.644-.337 2.602-2.096 3.3-4.178 4.113a78 78 0 0 0-1.85.837 76 76 0 0 1-1.26.638c-.78.39-1.23.631-2.029 1.103-6.923 5.163-9.202 11.998-9.202 19.92-.002 27.83.025 55.658-.011 83.487-.015 10.798.256 21.604-.898 32.376-.789 7.367 1.009 14.576 1.51 22.31-.375 2.755-.604 5.068-.605 7.41q-.013 43.23.01 86.463c0 1.321-.15 2.668.573 4.557.771-2.306.536-4.19.538-6.015.024-27.155.006-54.31.02-81.466 0-1.832-.016-3.666.107-5.496.365-5.417 1.49-6.54 7.062-6.845 3.994-.22 7.995-.098 11.993-.117 2.676-.014 5.345-.111 7.911-.928 2.847-.906 5.529-.925 8.112.838 1.097.749 2.405 1.14 3.726 1.39 4.462.843 8.648-1.468 10.002-5.512 1.333-3.986-.76-8.566-4.752-10.395-3.91-1.791-8.523-.343-10.899 3.423-.267.423-.594.852-.678 1.33-1.31 7.482-6.859 8.584-13.053 8.678-4.33.066-8.66.066-12.992-.075-3.36-.11-5.831-1.263-6.685-5.277-.48-1.57-.394-2.759-.41-4.382.049-1.032.06-1.62.027-2.646 1.382-39.04.08-77.655.53-116.263.043-3.665.079-7.304.828-10.938 2.064-10.006 8.268-16.482 18.325-17.833 17.577-2.362 32.898 2.73 45.916 14.823 2.634 2.447 3.76 5.269 3.757 8.842q-.014 16.249 0 32.497c.005 3.748-.988 6.783-4.116 9.114-2.552 1.9-3.79 4.622-3.537 7.865.287 3.687 2.192 6.26 5.685 7.476 3.728 1.297 6.911.195 9.456-2.697 2.454-2.79 2.845-5.921 1.165-9.273-.224-.448-.406-1.006-.792-1.26-6.982-4.586-5.658-11.73-5.673-18.433-.013-5.999-.017-11.997.08-17.997.065-4.003 2.018-6.152 5.76-6.976 27.354-6.02 64.595 10.1 68.797 49.27.897 8.357-.843 10.008-9.253 10.167-3.832.073-7.668-.057-11.498.033-4.347.103-8.034-.635-10.94-4.512-2.367-3.16-6.1-3.982-9.964-2.703-3.327 1.1-5.166 3.61-5.583 7.027-.452 3.694 1.206 6.48 4.29 8.39 3.508 2.173 7.637 1.798 10.79-1.957 2.85-3.393 6.153-4.026 10.128-4.1 8.654-.158 17.332.563 25.963-.636 2.092-.291 3.857.557 5.593 1.695 8.496 5.568 13.32 17.145 11.376 27.056-.757 3.86-3.425 4.536-6.627 4.624-8.998.248-17.997.084-26.996.107-5.666.015-11.332.042-16.998-.067-3.197-.061-5.829-.819-7.44-3.969-.915-1.789-2.564-3.054-4.473-3.846-3.457-1.435-7.702-.452-9.97 2.476-2.375 3.067-2.627 6.443-.728 9.826 1.772 3.156 5.917 4.7 9.56 3.749 1.479-.387 3.085-.935 3.873-2.151 3.401-5.25 8.639-4.862 13.816-4.853 13.499.022 26.998-.035 40.497.028 3.055.015 6.002.255 8.613 2.9 7.58 7.356 15.091 14.31 18.442 24.34 4.636 13.88.636 25.842-8.309 36.655-1.438 1.738-3.537 1.71-5.523 1.79-5.995.244-12.006.312-17.99.054-5.26-.226-9.296 1.551-12.814 5.388a178 178 0 0 1-11.341 11.273c-3.782 3.444-5.69 3.44-9.456-.014-4.421-4.054-8.55-8.413-12.801-12.644-2.481-2.47-5.274-3.948-8.86-3.914-16.988.163-33.983-.483-50.963.381-2.42.124-4.202-.645-5.73-2.352-1.11-1.24-2.07-2.616-3.425-3.624-3.653-2.717-8.165-2.485-11.422.595-3.199 3.026-3.578 7.739-.913 11.354 2.597 3.522 7.176 4.53 11.17 2.456.444-.23 1.008-.404 1.25-.806 4.27-7.082 11.27-5.827 17.827-5.841 12.996-.028 25.999.21 38.987-.106 5.819-.142 10.224 1.579 14.021 5.94 3.274 3.759 6.954 7.178 10.578 10.621 4.126 3.92 5.93 3.908 10.129-.098 4.34-4.141 8.553-8.414 12.75-12.698 2.359-2.408 4.973-3.64 8.389-3.64 9.497.003 18.994-.084 28.49.049 2.515.035 4.99.17 6.883 2.265 12.593 13.931 17.934 32.322 10.634 49.891-1.228 2.955-2.9 5.599-5.655 7.969-3.21 1.108-6.279.525-9.532 1.458-3.507.268-6.477 1.482-9.704 1.985 6.053 1.876 12.31.979 18.842 1.298.646.043.909.074 1.553.251 1.134.567 1.686 1.183 2.283 2.303 7.67 16.824 5.53 31.835-6.634 45.259-2.735 3.017-4.161 6.338-3.995 10.402.3 7.314-1.833 14.13-4.22 20.926-1.649 4.699-4.552 6.792-9.676 6.767-16.996-.084-33.995.093-50.989-.11-5.587-.066-9.846 1.606-13.732 5.639-9.364 9.717-18.975 19.2-28.604 28.657-3.314 3.255-5.004 6.855-4.82 11.539.191 4.823-.036 9.664.042 14.494.07 4.366-.676 7.993-4.747 10.76-3.357 2.283-3.869 6.157-2.374 9.923 1.423 3.585 4.315 5.53 8.16 5.55 3.89.02 6.68-2.06 8.11-5.61 1.643-4.075.316-7.845-2.843-10.363-3.468-2.762-4.073-6.101-4.146-10.093-.376-20.858-.423-20.86 14.23-35.507 6.365-6.36 12.756-12.695 19.082-19.094 2.383-2.41 4.991-3.6 8.395-3.607 16.33-.036 32.66-.094 48.99.058 2.276.02 4.88-.214 6.178 2.328 1.441 2.823-.618 4.679-2.15 6.628-.206.262-.44.507-.61.792-8.056 13.583-20.791 14.367-34.473 12.653-2.896-.362-3.905-2.86-5.647-4.565-3.042-2.978-6.704-3.79-10.583-2.129-3.575 1.531-5.312 4.603-4.968 8.454.361 4.043 2.762 6.766 6.658 7.876 4.017 1.144 7.134-.63 9.73-3.57 3.67-4.156 14.306-6.232 19.119-3.736 2.057 1.067 2.703 2.928 2.651 5.007-.211 8.374-1.464 16.576-4.54 24.417-1.15 2.927-3.36 4.364-6.575 4.446-6.665.17-13.327.217-19.99-.022-2.275-.081-4.27-.668-5.546-2.757-.258-.423-.623-.78-.955-1.154-4.247-4.777-10.082-5.374-13.975-1.433-3.458 3.5-3.287 9.113.382 12.523 4.083 3.795 10.023 3.114 13.872-2.012 1.907-2.54 4.042-3.71 7.11-3.751 4.832-.065 9.669-.238 14.493.045 6.19.364 7.817 3.646 4.579 9.03-6.324 10.516-15.662 16.746-27.71 18.432-6.482.906-11.592 2.692-16.253 8.064-6.943 8.003-16.394 11.06-27.195 8.03-5.078-1.424-8.494-5.004-11.75-8.485-.69-.001-1.035.312-.838.598 4.064 5.89 1.167 10.146-3.094 14.31-8.618 8.426-18.072 14.448-30.893 13.758-14.492-.779-24.544-10.256-24.62-24.828-.224-42.49-.096-84.982-.102-127.474 0-3.944 1.28-6.928 4.066-9.73 6.811-6.847 13.97-13.36 20.502-21.008.771-1.101 1.362-1.862 2.1-2.945.304-.498.433-.694.793-1.156.41-.416.59-.565 1.03-.948.573-.585.854-.961 1.352-1.619 1.371-1.203 1.539-2.336 1.44-3.811-.568-8.486-.097-16.99-.277-25.485-.09-4.211.675-7.71 4.478-10.394 3.107-2.192 4.014-5.665 2.724-9.4-1.107-3.205-3.18-5.477-6.71-5.98-4.012-.573-7.313.698-9.356 4.285-1.946 3.416-1.32 6.715 1 9.797 1.33 1.768 3.31 2.775 5.078 4.644.35.609.462.874.649 1.573-.102 10.752-.037 21.07.07 31.82.126 2.517-.5 4.036-2.123 5.661-7.654 7.661-15.23 15.404-23.004 22.942-3.631 3.52-5.048 7.45-5.036 12.462.103 42.162.01 84.324.086 126.486.032 18.336 14.812 30.165 32.9 26.73 9.182-1.743 16.841-6.05 23.378-12.589 1.885-1.885 3.808-3.74 5.633-5.677 2.568-2.726 5.474-3.417 9.057-2.424 13.176 3.654 23.986-.414 32.62-10.588 2.222-2.619 4.566-3.87 7.968-4.294 12.038-1.496 23.1-5.167 30.795-15.451 5.399-7.217 7.8-15.763 10.724-24.073.653-1.856.608-4.083 3.632-4.323" opacity="1.000000"/><path fill="#A2499D" d="M441.406 580.959c-1.167 0-1.947-.013-3.104.078-1.374.645-2.445.425-3.862.26-1.127-.277-1.889-.397-3.034-.463-1.57.126-2.774.324-4.128-.618-.591-.384-.922-.522-1.452-.466-.627.152-1.01-.002-1.57-.49-.223-.223-.447-.43-.59-.38-.505.008-.827-.122-1.336-.49-1-.57-1.778-.996-2.891-1.452-.775-.347-1.212-.662-1.925-1.013-1.054-.331-1.795-.735-2.943-.916a7 7 0 0 1-1.24-.28c-1.089-.475-1.866-.868-3.043-1.17-.74-.294-1.113-.555-1.67-1.13-.966-1.932-2.057-3.313-3.898-4.48-.479-.29-.67-.406-1.098-.757-.777-1.15-1.336-2.048-2.61-2.642a6.5 6.5 0 0 0-1.158-.164c-1.07-.16-1.852-.238-2.963-.16-.539-.033-.755-.065-1.306-.123-2.465.14-4.58.538-7.097.422-1.105.045-1.824.2-2.904.39-1.094-.022-1.817.003-2.879.27-.827.158-1.304.158-2.122.016-1.346-.498-2.19-1.28-3.641-1.446a8 8 0 0 0-1.275-.008c-.54.023-.757.014-1.292-.077a10 10 0 0 1-1.227-.47 15 15 0 0 1-1.795-.908c-5.215-3.969-10.706-7.082-14.215-12.518-1.271-1.968-3.57-2.197-6.148-2.206-.865-.042-1.365-.062-2.253-.096-4.485-.853-9.153-.517-11.32-5.752-.77-.904-1.516-1.405-2.522-1.983-2.974.184-4.902-.763-5.67-3.96-.047-.619-.146-.783-.494-.91-4.261-1.14-5.7-5.37-9.116-7.858-2.578-3.127-3.664-6.572-5.006-10.316-1.823-3.727-1.346-7.109-.317-10.913.683-1.626.27-2.86-.139-4.434-2.543-2.089-2.426-4.59-2.198-7.493-4.562-2.322-8.795-4.765-12.305-8.828-4.151-.466-5.116-3.581-6.488-6.8-.628-2.058-.562-3.908-1.666-5.824-1.14-2.635-.57-5.24-1.723-7.861-.001-2.616-1.366-4.274-2.539-6.396-.016-.607.022-.85.228-1.429 2.126-3.272 6.17.033 8.42-3.208 6.247-1.56 12.263-.864 18.232-.852 4.258.008 7.643-1.117 10.737-4.19 4.988-4.953 13.258-5.26 18.196-1.114 5.657 4.751 6.932 12.172 3.166 18.428-4.29 7.128-14.43 8.939-20.79 2.729-5.941-5.803-12.644-3.974-19.232-3.712-3.461.138-3.762 3.199-3.217 6.107 1.413 7.539 8.36 14.035 16.48 14.463 10.973.578 21.993.576 32.96-.007 5.816-.31 10.354-4.772 13.161-8.99 3.681-5.532 8.464-9.752 12.751-14.553 1.108-1.24 2.367-2.344 3.51-3.556 3.836-4.073 3.86-5.533-.095-9.602-4.295-4.419-8.77-8.662-13.033-13.11-2.857-2.98-6.159-4.183-10.259-4.165-16.155.072-32.31.099-48.465-.022-2.733-.02-5.747.678-8.159-2.095-.232-2.984 3.627-3.798 3.086-7.07 2.254-1.858 4.67-1.554 6.96-1.564 17.165-.075 34.33.006 51.494-.07 4.302-.019 7.586 1.325 10.582 4.454 14.394 15.033 29.43 29.43 44.12 44.173 1.059 1.062 2.089 2.156 3.218 3.143 2.27 1.986 3.167 1.017 3.274-1.56.034-.833.026-1.667.026-2.5-.002-11.332-.127-22.666.06-33.995.076-4.658-1.17-8.4-4.676-11.554-4.4-3.96-4.879-8.99-2.714-14.173 2.134-5.11 5.996-8.314 11.752-8.769 5.885-.465 11.597 2.986 14.038 8.47 2.242 5.036 1.324 11.27-3.182 15.113-3.624 3.09-4.498 6.628-4.482 11.012.076 20.83.148 41.663-.045 62.491-.048 5.181 1.175 9.309 5.093 12.893 4.455 4.077 4.983 9.472 2.621 14.714-2.32 5.15-6.656 8.471-12.48 8.613-5.786.142-10.228-2.646-12.883-7.91-2.4-4.758-1.091-12.126 2.796-16.242 5.794-6.134 5.912-15.413.075-21.432-6.96-7.177-14.056-14.225-21.205-21.215-4-3.91-5.643-3.868-9.669-.05-2.66 2.522-5.203 5.165-7.772 7.781-2.82 2.874-3.4 5.698-.952 9.328 3.467 5.139 3.581 10.678.037 15.898-3.58 5.274-8.873 6.662-14.934 5.865-2.815-.37-4.917-2.006-6.744-3.988-2.563-2.782-5.683-3.791-9.408-3.729-6.83.114-13.665-.014-20.497.058-3.504.038-6.048 1.27-5.464 5.308 2.076 14.344 8.066 25.997 22.229 32.026 3.922 1.67 8.092 1.982 12.179 2.583 3.592.53 6.165 2.053 8.228 4.951 1.74 2.445 3.994 4.472 6.233 6.47 3.22 2.876 7.024 4.418 11.325 4.701 6.611.435 7.755-1.183 5.232-7.385-.88-2.164-1.687-4.363-2.264-6.617-.858-3.353-2.544-5.946-5.303-8.175-5.674-4.587-7.177-10.49-4.693-16.462 2.37-5.7 7.414-8.488 14.625-8.143 5.2.249 8.75 2.976 10.91 7.498 2.233 4.673 2.662 9.75-1.022 13.609-4.28 4.483-3.726 8.773-1.55 13.699 4.6 10.418 10.666 19.587 20.846 25.413 7.722 4.42 15.732 5.996 24.458 3.158 8.363-2.72 12.327-8.607 13.096-17.026.227-2.488.104-4.997.104-7.496.005-45.494-.006-90.988.019-136.482.002-3.32-.305-6.674.835-10.255 3.532-3.125 4.53 1.612 7.23 1.948.366 18.624.473 37.081.521 55.539.082 31.27.127 62.541.311 94.268.469 1.493.527 2.547.183 3.998-.258 1.16-.39 1.941-.474 3.117.05.396.198.842.073 1.042-.873 2.185-1.621 4.17-2.386 6.506-.068.695-.198 1.007-.588 1.473-.17.193-.365.277-.343.381-.29.443-.48.84-.786 1.538-2.465 2.38-4.694 4.519-7.104 6.933-3.85 4.828-9.296 4.464-14.668 5.39" opacity="1.000000"/><path fill="#3E6ABB" d="M528.34 388.734c-.254.79-.412 1.051-.923 1.302-.552.213-.845.41-1.258.875-.153.218.213.068.29.25-1.435.13-1.47 1.532-2.28 2.637-7.324 7.49-14.335 14.829-21.628 21.875-2.486 2.402-3.507 4.808-3.5 8.255.092 42.156.047 84.312.035 126.468-.004 14.705 8.061 23.252 22.912 23.985 14.808.731 24.386-8.16 33.153-18.413 1.143-1.336.369-2.393-.404-3.56-1.191-1.798-2.442-3.602-3.294-5.565-.797-1.837-1.344-4.032 1.282-5.056 2.169-.845 3.54.418 4.32 2.278 4.083 9.743 12.309 11.57 21.464 10.74 6.942-.63 12.743-4.242 16.629-9.998 2.872-4.255 6.11-6.002 11.355-6.307 13.413-.778 24.278-6.492 31.141-18.643 1.933-3.42 1.912-5.164-2.72-4.803-2.982.232-5.996.017-8.995.03-5.022.019-9.628-.61-13.325 4.989-3.488 5.283-11.922 4.29-16.253-.595-4.188-4.724-3.691-12.002 1.1-16.128 4.863-4.186 12.818-3.656 16.276 1.812 2.168 3.427 4.633 4.078 8.156 3.961 5.493-.183 11-.22 16.492-.035 2.964.1 4.575-.915 5.51-3.76a83.6 83.6 0 0 0 4.121-22.528c.123-2.785-.78-4.018-3.652-3.82-2.156.15-4.342.163-6.494-.013-3.38-.277-5.772.494-7.821 3.708-3.017 4.733-8.114 6.002-13.168 4.258-4.49-1.55-7.92-6.508-7.738-11.19.179-4.618 3.582-9.124 7.958-10.535 5.126-1.653 10.406.076 13.399 5.054 1.378 2.292 2.889 2.812 5.225 2.705 2.66-.122 5.39-.37 7.987.06 12.974 2.143 18.408-7.695 25.048-15.578 1.554-1.846.418-2.602-1.586-2.6-17.829.01-35.657.025-53.485-.003-1.865-.003-3.06.955-4.278 2.172-10.485 10.484-20.97 20.968-31.544 31.362-1.562 1.535-2.307 3.141-2.294 5.266.027 4.498.01 8.997-.038 13.495-.054 5.082-.416 9.604 4.935 13.416 5.308 3.782 4.279 12.003-.67 16.27-4.787 4.13-12.546 3.254-16.453-1.856-4.048-5.295-3.043-12.489 2.763-16.078 2.756-1.704 3.388-3.628 3.322-6.517-.154-6.662.009-13.33-.152-19.992-.07-2.88.81-5.055 2.873-7.087 11.277-11.106 22.51-22.257 33.628-33.522 2.418-2.45 4.956-3.373 8.378-3.351 18.661.117 37.324-.081 55.984.08 3.444.03 5.172-1.206 6.313-4.228 2.662-7.052 5.078-14.193 4.74-21.817-.207-4.671 1.282-8.13 4.384-11.632 11.02-12.439 14.75-26.243 6.429-42.136-.323-.956-.479-1.595-.86-2.471-.228-.237-.119-.227-.124-.172-5.755-2.22-11.76-.45-17.608-1.087-2.07-.225-5.598 1.332-5.763-1.887-.194-3.78 3.554-2.315 5.753-2.53 2.13-.206 4.296-.039 6.446-.047.667-.003-.129.182.484-.014.552-.178.496-.372-.184-.305 2.84-.492 5.845-.792 9.254-1.259 3.853-1.673 5.452 1.493 8.132 2.988 2.907 5.362 5.042 10.64 5.275 16.835-.11.805-.067 1.24.12 1.975 1.04 2.626.42 5.038.376 7.828-.328 1.136-.494 1.85-.628 2.933.85 5.587-2.38 9.766-3.683 14.431-1.35 4.834-4.267 8.73-8.388 11.78-2.11 1.562-1.78 4.141-1.36 6.432.432 2.37.447 4.539-1.778 6.582-.427 1.005-.599 1.708-.766 2.773-.42 5.322-.358 10.323-3.522 14.705-1.69 2.341-2.517 5.248-4.018 7.802-1.051 1.79-2.199 3.187-4.054 4.641-.327.212-.26.246-.261.209-2.682 7.708-7.711 13.39-14.92 17.274-3.474 1.871-5.51 4.693-4.935 8.957.457 3.395-.205 6.606-2.35 9.809-.18.687-.203 1.039-.155 1.647-1.809 5.433-3.778 10.58-5.551 15.794-6.61 19.43-20.493 29.23-40.62 30.682-2.243.161-3.59 1.037-4.936 2.715-9.755 12.17-21.965 16.833-37.144 11.628-2.506-.86-3.648.406-5.009 1.977-4.03 4.653-8.314 9.079-13.479 12.482-11.796 7.772-24.382 9.725-37.48 3.868-9.627-4.306-15.216-12.107-15.265-22.73-.207-45.126-.085-90.254-.166-135.381-.005-2.639 1.183-4.27 2.898-5.99 9.272-9.305 18.457-18.698 27.848-28.33 3.723-1.983 5.19-.675 4.772 3.499" opacity="1.000000"/><path fill="#63B5C0" d="M493.45 273.058c-.406-27.542-.495-54.99-.542-82.437-.035-20.131-.242-40.266.09-60.391.135-8.195 4.478-14.558 11.724-19.212.584-.354.836-.55 1.286-.86.227-.078.113-.076.116-.019.262-.577.754-.874 1.723-.848 2.05-.403 3.8-.874 5.862-1.468 4.327-.36 8.34-.596 12.81-.898 4.142-3.972 8.145-1.452 11.951-.451 1.343.353 2.622 1.34 4.403 1.949.925.086 1.436.188 2.268.534 3.091 1.666 6.337 1.862 9.374 3.608.728.378 1.134.607 1.825 1.032 4.203 2.17 7.34 5.066 10.24 8.733 1.347 1.491 2.486 2.732 4.197 3.794.827.439 1.405.657 2.331.811a11 11 0 0 1 1.799.5c.892.329 1.505.499 2.485.614 1.285.31 2.173.75 3.55.904 2.454.45 4.885-.91 6.185 1.512 1.41.322 3.194.454 5.422.532 4.304-1.563 8.432-.455 11.762.608 18.662 5.959 33.141 17.28 40.354 35.983 2.266 5.877 4.105 12.257 4.033 18.81-.029 2.557 1.134 3.696 3.392 4.791 7.098 3.443 11.83 8.483 14.41 16.6 2.255 7.091 4.184 13.85 3.614 21.261-.082 1.065.767 1.802 1.492 2.962.178 3.943-2.618 3.987-5.412 4.51-2.107-1.622-3.961-2.572-6.558-2.55-15.828.138-31.658.138-47.486.036-2.609-.017-4.093.798-5.635 2.978-3.183 4.5-8.433 5.798-13.329 3.932-4.673-1.781-7.667-6.404-7.346-11.346.325-5.002 3.766-9.005 8.802-10.241 5.008-1.23 10.118.847 12.587 5.778 1.173 2.342 2.43 2.976 4.877 2.958 14.995-.11 29.992-.154 44.986.001 3.312.035 4.36-1.028 4.249-4.26-.18-5.211-.41-10.397-3.241-14.944-3.705-5.948-7.782-10.774-16.229-9.787-7.562.883-15.308.263-22.971.18-2.482-.027-4.225.448-5.796 2.773-3.406 5.038-8.402 6.584-13.465 4.818-4.442-1.55-7.63-6.058-7.587-10.729.044-4.867 3.553-9.622 8.068-10.933 5.157-1.497 10.05.356 13.326 5.392 1.087 1.672 1.991 2.753 4.203 2.705a448 448 0 0 1 19.491.004c2.902.064 3.61-.966 3.415-3.823-2.32-34.153-30.795-56.716-64.952-51.853-5.402.769-6.664 2.471-6.335 7.578.49 7.632.242 15.323.053 22.983-.08 3.212.512 5.278 3.568 7.271 5.234 3.414 6.21 10.175 3.05 15.025-3.327 5.108-10.17 6.755-15.412 3.71-4.988-2.898-7.032-9.11-4.563-14.293.627-1.316 1.471-2.972 2.652-3.505 4.968-2.242 4.776-6.314 4.714-10.76-.145-10.492.006-20.99.151-31.485.025-1.798-.268-3.249-1.636-4.461-12.74-11.292-27.077-18.228-44.602-15.714-12.142 1.742-18.08 8.746-18.112 21.118-.104 40.322-.104 80.643-.214 121.427-2.454.714-2.788-.94-2.884-2.678-.109-1.975-.025-3.957-.027-4.712.173 4.738-.108 10.7.272 16.67.165 2.603.987 5.826-2.827 7.273" opacity="1.000000"/><path fill="#030707" d="M294.622 476.793c1.665 2.616 3.077 5.023 4.62 7.747-2.477 1.614-2.669 3.003-.039 4.516 1.735.998 4.054 2.066 3.165 4.385-.985 2.57-3.043.753-4.652.23-2.05-.668-2.55.917-3.288 2.21-.411.72-.887 1.533-1.867 1.407-1.27-.162-1.49-1.263-1.483-2.249.016-2.877-1.112-4.623-4.077-5.375-3.214-.816-3.338-3.467-2.598-6.044 1.055-3.673.058-5.761-3.587-7.434-5-2.293-4.687-8.08-6.774-12.286-3.35-6.757-4.768-14.425-10.187-20.224-3.092-3.31-1.481-8.662-4.976-12.216-5.012-5.097-8.291-11.145-7-18.782.186-1.106-.192-2.432-1.56-2.811-1.244-.345-1.732.65-2.17 1.576-.347.731-.568 1.776-1.625 1.545-1.15-.25-1.237-1.39-1.457-2.369-1.478-6.575-1.065-13.253-1.042-19.903.01-3.128-.177-5.767-3.64-7.405-2.769-1.31-2.307-3.646.283-4.824 3.053-1.39 3.23-3.75 3.371-6.546.458-9.01-1.825-17.43-5.094-25.68-.364-.918-.813-1.895-.82-2.848-.062-8.77-.037-17.542-.037-26.35 2.25-1.087 2.451 3.77 4.8 1.771 1.718-1.463 1.062-3.735 1.084-5.68.028-2.53.307-4.986 1.305-7.324.464-1.09.982-2.323 2.503-1.78 4.1 1.466 4.228-1.435 4.147-3.974-.142-4.404.608-8.61 1.937-12.761.202-.631.08-1.672.467-1.89 5.174-2.933 3.426-6.77 1.858-10.93-.805-2.136-.06-4.621.77-6.843.844-2.26 1.17-4.489.011-6.768-.62-1.218-1.044-2.642-.137-3.805 2.623-3.364 2.755-6.458-.035-9.911-1.27-1.571.09-2.926 1.86-3.047 3.923-.269 4.194-2.476 3.255-5.517-.246-.794-.505-1.607-.577-2.427-.137-1.561-1.073-3.924 1.094-4.213 1.993-.266 1.332 2.19 1.627 3.522.255 1.148.339 2.556 1.784 2.63 1.831.094 2.137-1.537 2.042-2.823-.396-5.341.99-9.511 6.52-11.524.744-.27 1.444-1.463 1.626-2.34.807-3.888 3.21-6.43 6.394-8.537 1.692-1.121 2.717-2.887 3.282-4.885 2.091-7.386 4.034-8.256 11.341-4.89.77.718.86 1.432.695 2.544-.27.834-.522 1.265-1.102 1.922-.465.399-.669.532-1.214.78-3.999 1.055-4.29 4.763-5.775 7.276-1.835 3.105 2.12 5.1 2.996 8.146.738 1.203.547 2.128.13 3.402-.146.585-.199.822-.317 1.422-.164.592-.263.821-.845 1.619-.693.702-.902.835-1.45 1.094-.569.155-.799.184-1.363.178-.97-.126-1.544-.362-2.252-.965q-.522-.483-.413-.38c.652.639 1 1.135 1.204 2.078.008.568-.017.8-.17 1.364-.264.531-.401.729-.81 1.165-.482.345-.694.452-1.251.625-1.905.463-4.31-.173-3.623 3.186.13.597.155.846.136 1.478-.175.889-.383 1.362-.911 2.11-.626.659-1.055.933-1.896 1.205-3.877.677-6.832 1.718-5.514 6.332.183.642-.031 1.444-.513 1.856-4.38 3.745-4.74 8.172-3.473 13.61.911 3.912.505 8.245-.78 12.274-.741 2.32-.37 3.947 2.855 4.135 3.549 1.375 4.175 4.446 5.295 7.595-.256 1.705-.78 2.956-.738 4.713-.966 3.594-3.55 5.345-6.345 7.376-4.456.805-5.764 3.124-4.419 7.397-.901 3.344-1.987 6.222-4.759 8.508-5.174.503-3.89 2.852-1.958 5.73.104.828.046 1.3-.242 2.086-6.01 4.41-6.066 12.4-.05 16.494.557.978.688 1.702.608 2.821-3.043 5.67-3.043 5.67 1.457 7.865.42.426.559.624.818 1.163-.582 5.546-.827 10.752.043 16.307a10 10 0 0 1-.396 1.945c-.193.693-.315 1.078-.503 1.754-.15.689-.26 1.081-.456 1.779-.293 1.12-.538 1.927-.394 3.126.008 1.025-.12 1.7-.208 2.726-.188 2.08-.982 3.591-2.32 4.566-3.364 2.45-3.408 5.28-.566 7.795 3.119 2.76 3.518 6.984 6.369 10.183.38.447.507.647.74 1.185.197 2.302.418 4.127 1.53 5.945 3.491 5.703 5.325 11.895 5.531 18.686.076 2.49 1.568 5.055 5.051 5.704.622.55.905.927 1.28 1.656.606 1.861.542 3.659 2.476 4.84.44.367.601.535.98.982.35.48.483.678.788 1.195 1.061 2.321 2.616 3.983 3.24 6.514-.433 2.772-.84 5.14 3.058 5.512.511.262.694.406 1.056.85.179.299.06.537-.031.635.121 2.616 1.83 4.076 4.056 5.475.655 2.845.935 5.652 1.213 8.896-1.966 2.34-1.447 3.819 1.028 5.216" opacity="1.000000"/><path fill="#DA995E" d="M294.975 207.174c.255-.167.349-.46.203-.509-.037-.587.199-1.065.79-1.813.594-.61.957-.888 1.383-1.418.382-.37.6-.589.76-1.144.001-.995.33-1.589 1.234-2.091 1.973-1.422 3.37-3.478 5.253-4.131 6.801-2.36 8.13-7.326 9.057-13.9 3.878-27.533 24.797-46.881 51.011-50.974.737-.219 1.177-.263 1.637-.645.433-.42.808-.335 1.406.073 4.346.195 8.432.233 12.92.213 1.154-.372 1.937-.338 3.048-.063.48.29.636.359 1.044.393.968-.914 2.196.058 3.143-.972 1.023-1.122 1.828-2.046 2.89-3.138.438-.313.618-.457 1.074-.81.276-.209.206-.21.208-.176.14-.149.28-.333.633-.788a138 138 0 0 1 6.035-5.327c.504-.275.697-.402 1.194-.696.304-.168.226-.164.23-.125.557-.876 1.256-1.624 2.612-2.001.837-.279 1.362-.536 2.067-1.03.461-.397.722-.585 1.177-.911.214-.112.69-.178.875-.331.368-.245.552-.336.966-.63.506-.363.781-.522 1.13-.925 5.817-3.262 11.395-6.779 18.699-6.228.84.044 1.284.053 2.044-.056 3.99-.964 7.712-.353 11.845-.307.827.266 1.218.369 1.912.42 1.812.752 3.483.126 5.278.809.234.327.18.199.116.227 1.195.392 2.565.433 3.901 1.52.253.212.415.438.551.408.553.026.928.182 1.468.677.215.225.223.237.23.238.148.143.29.285.698.568.725.531 1.184.92 1.935 1.386.473.22.654.364 1.086.748.25.24.251.315.288.315.198.164.359.328.77.728 1.398 1.788 2.544 3.341 3.964 5.066 1.422.787 2.126 1.662 1.997 3.403.421 1.95.812 3.542 1.333 5.467.81 14.642.255 28.96.37 43.76-.108 6.881-.17 13.276-.144 20.136.324 3.132.163 5.804.132 8.916-.112 2.19-.17 3.94-.14 6.118.364 8.741.154 17.054.132 25.842-.147 2.523-.23 4.572-.383 7.054-2.978.472-3.027-1.782-3.236-3.717-.43-3.983-.199-7.992-.238-11.99-.04-4.155.262-8.348-2.367-12.02-.795-1.11-.712-2.553-.675-3.887.31-11.004-.128-21.966-1.827-33.293-.199-13.096-.018-25.762-.126-38.427-.117-13.781-6.935-20.42-20.61-20.811-16.525-.474-29.792 6.4-40.65 18.099-4.482 4.827-8.675 6.997-15.523 5.981-29.254-4.339-54.387 14.85-58.893 41.502-.449 2.655-2.206 5.969 1.017 7.734 3.186 1.745 6.803 1.293 9.983-.746 1.406-.902 2.472-2.23 3.744-3.303 6.225-5.252 13.318-4.747 19.104 1.343 4.952 5.214 4.963 13.938-.374 18.908-4.258 3.965-12.422 6.634-18.946.418-5.505-5.247-19.713-6.882-26.365-3.376-3.892 2.05-6.342 5.337-7.62 9.49-1.309 4.257-.174 6 4.35 6.09 9.997.201 19.999.148 29.996.053 19.78-.187 14.36 2.11 28.575-11.812 3.69-3.615 7.26-7.354 10.974-10.944 2.836-2.742 4.42-5.797 3.476-9.827a5.8 5.8 0 0 1-.126-1.99c.95-7.714.005-14.447-6.158-20.437-4.111-3.996-2.014-12.15 2.812-16.613 4.924-4.553 11.664-5.048 16.92-1.241 7.393 5.354 8.363 15.255 1.799 21.669-2.64 2.58-3.68 5.346-3.65 8.865.043 5.164-.008 10.331-.031 15.497-.014 3.177-1.025 5.685-3.315 8-8.553 8.652-17.237 17.173-25.75 25.862-2.655 2.71-5.605 3.815-9.332 3.812q-19.248-.016-38.496 0c-13.31.013-13.312 0-22.4 9.53-1.137 1.192-1.966 2.738-4.171 3.202-3.25.086-3.901-2.358-5.35-4.489-.522-1.53-.29-2.508 1.137-3.394.351-.202.313-.26.327-.23.194-.238.405-.478.837-.84.189-.15.141-.185.165-.165.647-1.05 1.188-2.194 2.752-2.797.26-.17.23-.206.25-.196.203-.253.414-.491.845-.847.19-.144.138-.179.149-.15a3.3 3.3 0 0 1 1.026-.833c.272-.048.722-.007.943-.052 1.435-4.416-1.442-8.256-1.376-12.822.136-1.02.343-1.673.666-2.637.301-.712.493-1.107.854-1.777.267-.693.36-1.106.536-1.814.363-.625.663-.898 1.295-1.247.43-.27.593-.39 1.011-.677" opacity="1.000000"/><path fill="#5495BE" d="M665.967 236.819c-.463-4.094 1.985-3.75 4.72-3.494 5.191-.616 6.458 3.947 9.167 6.46 6.225 5.78 9.327 13.369 11.85 21.25.154.478.372.971.319 1.449-.9 8.117 2.81 16.653-2.235 24.397-2.571 3.947-1.685 7.23 1.349 10.755 4.439 5.158 8.847 10.706 10.514 17.343 2.732 10.874 7.288 21.733 2.846 33.326-1.086 2.834-1.865 5.698-5.112 7.474-.327.227-.553.405-.531.547-.972 2.39-.088 5.17-2.264 7.388-2.993-.454-3.7-3.655-6.539-4.713 11.245-19.434 9.316-38.46-5.745-55.358-1.475-1.655-3.033-2.317-5.2-2.3-9.66.071-19.322.105-28.982-.023-2.42-.033-4.048.895-5.65 2.527-5.601 5.705-11.385 11.233-16.91 17.008-2.52 2.633-4.432 2.745-6.986.054-5.272-5.556-10.84-10.832-16.131-16.37-1.882-1.97-3.84-2.73-6.567-2.708-16.657.13-33.315.127-49.972.054-2.81-.013-4.808.306-6.531 3.122-2.9 4.74-8.23 6.219-13.088 4.471-4.567-1.643-7.619-5.899-7.644-10.661-.028-5.112 3.034-9.33 7.924-10.92 5.091-1.657 10.141-.16 12.96 4.714 1.67 2.889 3.662 3.19 6.483 3.174 17.49-.102 34.98-.019 52.47-.155 2.727-.02 4.707.706 6.58 2.679 4.468 4.711 9.285 9.1 13.639 13.91 2.41 2.664 3.915 3.137 6.54.181 4.306-4.849 9.195-9.177 13.62-13.929 2.358-2.533 4.906-3.48 8.36-3.367 7.155.235 14.324-.029 21.486.05 2.519.029 4.645-.194 5.286-3.143.033-.154.149-.3.253-.427 15.382-18.923 7.23-36.276-5.204-49.527-1.594-1.699-3.286-3.307-5.075-5.238" opacity="1.000000"/><path fill="#030707" d="M699.475 356c9.311-22.578 2.866-41.877-12.643-59.203-2.385-2.664-3.218-4.421-1.024-7.955 6.505-10.48 6.784-21.701 2.121-33.035-3.616-8.788-9.374-16.052-16.684-22.504-3.067-2.054-3.825-4.36-3.621-7.989.797-14.189-4.273-25.627-17.399-32.5-2.057-1.077-3.3-2.137-3.489-4.751-2.2-30.477-24.061-53.157-53.372-56.965-1.217-2.693.175-3.605 2.074-2.49 3.877 2.277 8.077.483 12.105 1.555 4.453 1.185 9.37.412 11.874 5.834.914 1.98 3.163 3.428 5.557 3.965 2.866.644 5.211 2.268 7.364 4.084 1.984 1.673 3.767 2.702 6.653 2.444 4.298-.383 7.617 3.564 7.125 8.042-.457 4.175.96 6.428 5.322 6.484 2.535.033 3.279 1.261 3.243 3.842-.076 5.543 1.153 10.207 5.562 14.722 3.241 3.319 4.708 8.851 7.277 13.276 1.515 2.609 2.323 3.44 5.157.13-.728 5.176.171 9.435-3.973 12.312-1.241.861-1.807 2.706-.596 4.025 4.679 5.096 3.384 12.405 6.856 18.304-2.358.742-3.856 2.256-1.41 3.787 5.403 3.382 7.274 10.492 13.799 12.56 1.178.374 1.331 1.76 1.632 2.914 1.24 4.761 1.612 9.735 4.447 14.089 1.405 2.157.465 4.815-.698 7.155-.599 1.204-1.022 2.793.869 3.21 1.39.308 1.82-1.026 2.242-2.172.586-1.592-.752-4.849 2.445-4.273 2.826.508 5.135 2.546 4.67 6.074-.674 5.101-1.769 10.194 1.345 14.988.699 1.075-.115 2.076-.806 3.121-2.448 3.701-2.332 3.676 1.392 5.62 1.66.868 2.4 3.043 1.765 4.308-2.542 5.055.637 9.697.617 14.535-.008 1.853.221 3.35-1.17 5.012-1.61 1.923-2.316 4.558-.859 6.953 1.55 2.547 3.172 5.046 7.082 4.049 3.038-.775 3.689 1.601 3.594 3.964-.247 6.174-2.167 12.05-3.48 18.029-.445 2.022-2.362 2.726-4.196 3.085-2.767.542-5.567.915-8.77 1.365m-348.69 190.194c4.836-.726 8.272.711 11.003 4.831 2.587 3.903 6.392 6.824 10.986 9.152.504.25.674.327 1.061.58.4.195.583.212 1.007.365.428.254.615.373 1.111.615.309.124.195.052.232-.005.577 1.696 2.034 1.121 3.55 1.165.774-.02 1.23-.002 2.005.148 1.069.5 1.812.897 2.965.429 1.04-.192 1.804-.234 2.945-.197 3.074 1.433 5.51.605 8.109-1.055.234-.235.413-.438.54-.388 1.402-.316 2.692-.58 4.5-.269.466.17.216.34.341.25.79 1.514 1.372 3.185 3.542 3.965.258.198.343.2.342.243 1.08 2.003 2.3 3.822 4.868 4.728.612.121.868.23 1.167.654.418 1.433 1.56 1.698 2.8 2.328.303.122.174.202.228.149.356.41.46.915.139 1.79-6.338.583-12.452.843-18.567 1.08-.43.017-1.225-.08-1.247-.22-.667-4.205-6.28-5.045-6.305-9.72-2.42.959-3.138 2.36-2.42 4.742 1.208 4.017-1.116 5.165-4.481 4.63-3.115-.495-6.112-1.564-9.2.155-1.04.579-2.342.579-3.09-.651-.754-1.24.262-2.16.767-3.177.865-1.742 3.937-3.151 2.818-4.857-1.84-2.808-3.397-6.528-7.475-7.02-1.337-.161-2.674.023-3.637-1.113-2.037-2.406-4.084-2.555-6.282-.198-.678.727-2.057 1.71-2.542 1.077-3.257-4.24-7.818-1.462-11.67-2.255-3.51-.723-4.264-2.213-3.075-5.077 1.172-2.822 1.682-5.162-1.316-7.299-1.605-1.144-.517-2.676.68-4.17 4.002 1.11 7.606 3.045 12.012 3.848.042 1.252.848.938 1.589.747m236.29-415.681c-2.172.171-4.023.2-6.14-.02-1.268-.246-2.235.107-3.58.223-1.099.395-1.861.62-3.022.845-.623-1.206-1.67-1.665-2.887-2.189-.711-.13-1.038-.39-1.407-.859-.785-1.946-1.328-3.868-3.95-4.289a401 401 0 0 1-10.902-8.03c-.476-.527-.763-.751-1.334-1.015a206 206 0 0 1-8.603-4.064c-.604-.509-.955-.758-1.648-1.006a1494 1494 0 0 1-16.208-3.145c-.717-.246-1.055-.339-1.314-.535-1.827-1.386-5.775 1.29-6.017-2.437-.299-4.59 3.45-7.948 7.879-7.986 8.23-.07 16.31.969 24.255 3.172 1.215.337 2.62-.017 3.937-.039 1.405-.023 3.228.274 3.22 1.699-.028 5.224 4.572 8.29 5.636 12.965.632 2.777 2.084 3.62 4.6 1.5 2.237-1.885 3.602-.689 4.394 1.666 1.227 3.647 4.736 5.775 6.028 9.581.799 2.356 4.17 1.167 6.407 1.502 1.469.22 3.836.21.656 2.46m65.736 366.484c.326-5.125 1.564-10.386 1.644-15.806.021-1.419 1.383-2.223 2.482-2.96 6.856-4.6 12.329-10.594 17.611-17.254-.103 3.281-.313 6.765-1.75 10.037-.372.849-.666 2.177-.266 2.849 2.731 4.575-2.594 4.872-3.943 7.158-1.057 1.79-3.442.7-5.317-.471-3.435-2.146-6.914.864-7.244 6.138-.224 3.581.699 7.476-3.218 10.31m34.753-66.041c-.085-3.74.276-7.526.435-11.32.07-1.655.843-2.714 1.93-3.818 6.436-6.54 10.52-14.355 12.596-23.647 2.085 1.843 1 3.86.143 6.115-.887 2.336-3.976 5.668 1.893 6.335 1.596.182 1.486 2.012 1.03 3.327-.452 1.301-1.475 1.77-2.783 1.242-.895-.362-1.733-.862-2.57-1.287-1.095 1.054-.387 1.988.007 2.799 1.413 2.915 3.48 5.787-2.674 4.874-2.958-.44-7.365 5.783-6.943 8.96.353 2.654 1.066 5.462-3.064 6.42m-366.298 94.751c2.549 2.891 4.769 5.704 7.154 8.828-6.267-2.731-12.82-5.567-18.161-10.504-1.944.493-.65 2.802-2.032 3.626-.26-.108-.715-.16-.778-.344-2.334-6.873 3.472-11.914 4.178-18.14.125-1.106 1.529-2.068 2.489-3.45 1.059 2.939 1.971 6.23 2.876 9.899-2.57 4.435-1.35 7.404 4.274 10.085m353.844-64.89c4.626-8.278 8.998-16.836 11.398-26.66.571.579 1.442 1.594 1.256 2.35-.711 2.905-1.08 5.4.668 8.361.768 1.301 1.094 5.7-3.347 5.209-1.471-.163-1.847.39-1.607 1.577.392 1.927.429 3.047-1.952 4.178-2.265 1.077-.083 3.06.928 4.393.97 1.278 2.002 2.644.272 3.795-1.558 1.038-2.408-.526-3.015-1.665-.994-1.867-2.522-1.91-4.601-1.538m21.452-96.694c-1.572-3.087.82-4.9 2.038-7.397.451 2.733 1.689 4.816 4.907 5.29 1.794.264 3.272 1.022 3.19 3.125-.07 1.83-1.252 2.405-3.017 2.553-4.308.363-1.313 2.833-.92 4.188.674 2.324 3.689 4.337.212 7.088-1.852-4.952-3.279-10.084-6.41-14.847M311.62 493.684c4.073 1.054 1.809 4.255 2.445 6.905-5.067.566-5.067.566-5.75 5.188-4.527-3.236-4.562-5.905-.236-8.874 1.193-.82 2.137-2 3.542-3.22m269.775 81.683c.574-.978.992-1.744 1.634-2.187 1.488-1.03 3.07-1.212 4.515.15.896.846 1.482 1.94.935 3.11-.885 1.894-2.736 1.515-4.351 1.472-1.419-.037-2.62-.49-2.733-2.545" opacity="1.000000"/><path fill="#030707" d="M688.12 234.82c.714 1.726.66 3.094-.981 3.558-1.497.424-1.976-.932-2.317-2.042-.663-2.157-4.71-4.383-1.743-6.223 2.499-1.549 3.27 2.76 5.041 4.708m7.872 196.431c-2.15-1.058-2.214-2.493-1.033-4.02.569-.736 1.523-.734 2.088.01 1.164 1.533 1.107 2.97-1.055 4.01M329.128 535.77c1.714.868 3.38 2.123 5.277 3.635-1.335.968-2.688 2.802-4.65 1.66-2.143-1.246-.635-3.236-.627-5.295m134.688 71.834c-.816-1.82-1.23-3.438.553-4.52.648-.394 1.353.2 1.36.897.012 1.496 1.405 3.704-1.913 3.623M686.381 459.03c.432-1.725 1.226-2.825 2.797-1.921.968.557.87 1.83.237 2.63-1.085 1.37-2.196 1.196-3.034-.71m-30.584 69.547c-1.82-.305-2.784-1.003-1.624-2.609.517-.717 1.457-.834 2.186-.342 1.568 1.056 1.218 2.062-.562 2.951m-14.266 11.908c1.34 1.174 1.13 2.123-.106 2.796-.814.444-1.642.183-1.91-.744-.409-1.421.342-2.085 2.016-2.052m-315.215 4.931c-1.341.255-2.418.096-2.366-1.22.042-1.055 1.111-1.156 1.937-.973 1.243.276 1.693.969.43 2.193m148.318 59.578c-.322 1.19-.933 1.7-1.785 1.047-.75-.574-.75-1.507-.002-2.082.843-.65 1.466-.165 1.787 1.035m-32.857 14.733c1.088.934 1.153 1.807.122 2.475-.248.161-1.061-.065-1.223-.342-.572-.98-.435-1.85 1.101-2.133M703.3 388.633c-.231-2.025-.29-4.382-.297-7.178 1.355 1.922 1.219 4.366.297 7.178m-99.532 172.094c.797.639.522 1.118-.08 1.442-.188.102-.686.014-.772-.138-.386-.689.007-1.091.852-1.304m-297.754-46.809c.586.38.614.77.181 1.128-.083.07-.339.059-.42-.017-.402-.379-.378-.768.24-1.111" opacity="1.000000"/><path fill="#070606" d="M414.406 575.996c-.383-.479-.36-.962-.302-1.806.957.146 1.877.652 2.965 1.43-.64.304-1.449.338-2.663.376" opacity="1.000000"/><path fill="#030707" d="M537.728 604.965c.181-.068.358-.025.535.019-.18.03-.36.062-.535-.019m70.307-48.237c.068.181.025.358-.019.535-.03-.18-.062-.36.019-.535M299.417 200.207c-.05.505-.382 1.028-.988 1.7-.837-.939-.39-1.485.988-1.7M675.001 228c.354.214.715.418 1.051.656.045.031-.032.234-.052.357-.292-.207-.584-.413-.939-.816a1.3 1.3 0 0 1-.06-.198" opacity="1.000000"/><path fill="#63B5C0" d="M554.054 237.947c-8.005-8.035-15.678-15.906-23.568-23.553-2.476-2.399-3.46-4.877-3.423-8.315.149-13.653-.02-27.309.035-40.963.011-2.655-.4-4.464-3.074-6.022-4.847-2.825-6.419-8.012-4.736-12.983 1.5-4.433 6-7.703 10.646-7.738 4.968-.037 9.567 3.27 10.998 7.906 1.59 5.155-.006 10.15-4.822 12.953-2.427 1.412-3.04 2.956-3.022 5.542.09 13.32.072 26.643-.066 39.963-.027 2.556.806 4.257 2.605 6.052a6604 6604 0 0 1 46.793 47.16c1.676 1.706 3.321 2.421 5.653 2.403 11.49-.093 22.98-.097 34.469-.047 2.463.01 4.162-.475 5.71-2.833 3.007-4.58 8.85-6.112 13.702-4.268 4.191 1.594 7.228 6.378 7.047 11.105-.19 4.991-3.638 9.232-8.52 10.481-5.038 1.29-10.088-.605-12.758-5.445-1.373-2.488-2.996-3.04-5.547-3.024-11.988.08-23.979-.066-35.967.055-2.901.03-4.976-.839-6.997-2.93-8.213-8.503-16.591-16.846-25.158-25.5" opacity="1.000000"/><path fill="#3E6ABB" d="M534.977 506.292c.454 2.411 2.48 2.513 3.721 3.523 4.027 3.277 5.684 8.294 4.122 12.954-1.54 4.598-6.195 7.727-11.236 7.553-4.852-.167-9.15-3.393-10.498-7.88-1.493-4.968-.092-9.91 4.474-12.693 2.943-1.795 3.429-3.91 3.376-6.945-.152-8.83.058-17.666-.125-26.494-.065-3.147 1.158-5.28 3.294-7.4a10651 10651 0 0 0 50.937-50.86c2.151-2.163 4.369-3.137 7.47-3.11 14.83.126 29.662-.008 44.493.048 2.803.011 4.8-.248 6.348-3.3 2.265-4.468 8.174-6.21 13.082-4.728 4.323 1.305 7.691 5.814 7.874 10.54.19 4.888-2.72 9.392-7.1 10.996-4.883 1.787-10.694.52-13.356-3.875-1.917-3.164-4.14-3.582-7.337-3.555-13.83.118-27.662.084-41.493-.026-2.675-.021-4.598.686-6.565 2.659-16.221 16.272-32.556 32.432-48.941 48.54-1.82 1.79-2.633 3.612-2.608 6.13.09 9.165.033 18.33.068 27.923" opacity="1.000000"/><path fill="#BB5A85" d="M467.032 400.484c-1.232 1.83-2.384 3.206-3.738 4.821-2.09-2.083-.661-4.738-1.927-7.025-3.458-1.738-2.551-4.779-2.731-7.273-.463-6.409-1.427-7.453-7.847-7.562-4.662-.079-9.335-.196-13.987.004-4.528.193-7.97-1.404-10.996-4.706-3.259-3.556-6.922-6.745-10.19-10.294-3.418-3.71-7.452-5.24-12.462-5.07-6.155.21-12.326.173-18.484.008-4.27-.114-7.574 1.238-10.696 4.27-6.862 6.661-16.433 5.651-21.617-1.91-3.603-5.257-3.33-10.842.788-16.161 3.415-4.412 10.206-6.19 15.87-4.134 1.255.456 2.718.854 3.512 1.844 4.615 5.755 10.965 5.4 17.35 5.31 6.993-.1 13.989-.026 20.984.012 3.204.018 5.741 1.086 7.994 3.368 3.978 4.029 8.077 7.942 12.007 12.016 3.092 3.206 6.669 4.786 11.14 4.588 3.157-.139 6.329.052 9.49-.049 5.643-.18 7.02-1.49 7.04-7.27.052-14.31.281-28.62.074-42.932-.041-2.81-.264-5.673 1.036-8.712 3.29-2.092 4.054.053 4.467 2.313.533 2.919.19 5.904.335 8.856.101 2.07-.378 4.378 2.185 5.947.369 23.214.426 46.25.403 69.74" opacity="1.000000"/><path fill="#5495BE" d="M493.018 273.426c1.951-7.817.56-15.3.961-22.714.153-2.812.034-5.638.117-8.456.034-1.173.25-2.527 1.705-2.64 1.842-.142 2 1.398 2.116 2.735.401 4.615-.479 9.285.759 14.244.228.835.286 1.298.257 2.104-.68 1.406-.365 2.552-.245 3.976.088 3.057.953 4.485 4.183 4.313 5.481-.29 10.997.104 16.48-.152 3.505-.164 6.488-.762 7.03-5.736.698-6.419 7.777-10.13 14.062-8.29 6.39 1.87 9.946 8.586 7.695 14.532-2.412 6.368-9.753 9.751-15.485 6.267-3.698-2.247-6.577-1.805-10.475-1.156-6.003.999-12.281.644-18.423.39-3.721-.154-4.788.901-4.77 4.691.14 31.311.063 62.623.046 93.935 0 1.497.08 3.013-.123 4.487-.224 1.641-1.26 2.809-3.01 2.72-1.666-.087-2.735-1.129-2.92-2.86-.089-.826-.073-1.664-.073-2.497.003-33.143.01-66.287.113-99.893m172.03 65.564c-4.97 10.189-14.83 11.278-20.937 2.532-1.319-1.887-2.622-2.577-4.846-2.568-17.66.067-35.323.105-52.983-.058-2.892-.027-3.975 1.55-5.414 3.468-3.824 5.095-9.887 6.177-15.077 2.938-4.978-3.106-6.849-9.098-4.489-14.376 2.373-5.305 8.501-7.818 14.314-5.887 1.96.65 4.044 1.651 4.733 3.44 1.87 4.85 5.644 4.553 9.701 4.52 16.161-.13 32.323-.088 48.485-.14 1.926-.006 3.971.43 5.136-1.99 3.172-6.59 10.532-7.117 14.484-5.75 4.964 1.719 7.417 6.593 6.893 13.872m-105.316 57.231c4.811-5.306 9.782-10.226 14.595-15.295 1.717-1.808 3.695-1.924 5.905-1.92 12.331.024 24.662-.053 36.993.02 2.672.015 4.435-.471 6-3.125 2.808-4.762 8.022-6.37 13.025-4.88 4.618 1.375 7.82 5.899 7.806 11.029-.014 4.897-3.05 9.052-7.703 10.54-4.993 1.596-10.273.04-13.08-4.645-1.58-2.639-3.394-3.1-6.064-3.076-11.497.102-22.997.162-34.492.017-2.948-.037-4.886.996-6.886 3.065-6.599 6.826-13.424 13.434-20.489 20.246-2.836-2.308-.813-3.896.644-5.723 1.467-1.838 4.343-2.807 3.746-6.253" opacity="1.000000"/><path fill="#C96C67" d="M467.02 330.467c-1.16 1.358-1.737 3.371-3.498 2.81-2.052-.653-1.36-2.735-1.457-4.28-.315-5.081.49-10.203-.694-15.639-2.038-1.083-2.362-2.707-2.56-4.405-.214-1.82-.237-3.651-.238-5.48-.026-39.921-.045-79.842.039-119.762.006-3.073-.676-6.38 2.083-9.325 2.109 8.678.776 17.687 1.252 26.642.265 5.002-1.26 10.344 3.397 14.483.908.808.494 3.168.586 4.818.367 6.633-.644 13.31.837 20.27.265 17.932.353 35.508.385 53.085.023 12.11-.031 24.22-.131 36.783" opacity="1.000000"/><path fill="#3E6ABB" d="M559.343 396.033c3.444-.1 4.654.718 2.22 3.733-2.117 2.622-5.336 4.354-6.47 8.192-.078.36-.184.164-.096.095-.194.136-.448.371-.845.832-.168.198-.168.1-.118.099-.22.219-.475.452-.883.9-.168.199-.167.1-.117.1-.22.218-.474.453-.883.9-.167.199-.167.1-.117.1-.22.22-.475.452-.883.9-.168.198-.167.1-.118.1-.22.218-.473.453-.882.9-.168.198-.167.1-.118.1-.219.219-.474.453-.881.9-.167.2-.167.1-.118.101-.22.218-.474.452-.882.9-.166.2-.166.101-.117.1-.22.218-.475.452-.883.9-.166.2-.163.102-.115.103-.222.216-.477.447-.885.892-.168.197-.18.102-.132.096-.278.27-.563.583-.907 1.235-3.894 4.247-7.622 8.26-11.515 12.103-1.687 1.666-2.437 2.936-1.344 5.52 2.236 5.289.628 10.152-3.672 13.274-3.943 2.862-9.537 2.785-13.532-.185-3.897-2.896-5.439-7.7-3.997-12.456 1.464-4.829 5.997-8.257 11.462-7.74 3.16.298 4.922-.995 6.862-2.946a3522 3522 0 0 1 29.966-29.748" opacity="1.000000"/><path fill="#5495BE" d="M528.458 389.004c-.61-2.007-1.403-3.735-4.332-3.98-1.2-10.748-.532-21.447-.608-32.61-.035-.642-.113-.814-.37-1.203-6.485-3.207-9.152-7.84-7.843-13.53 1.22-5.307 6.188-8.98 11.77-8.703 5.248.26 9.714 4.222 10.55 9.57.699 4.471-.56 8.494-4.55 10.748-3.18 1.797-3.667 4.15-3.613 7.347.153 8.955.117 17.914.074 26.87-.009 1.778.449 3.672-1.078 5.49m151.053-29.088c2.745.202 5.033.332 7.32.463-5.866 1.277-12.042-.225-18.87 1.661 3.086 2.647 5.653 1.628 7.961 1.916 4.834.602 9.956-1.406 14.801 1.876-6.354.232-12.985.206-19.616.144-2.31-.021-5.164.301-5.172-3.062-.008-3.339 2.858-3.083 5.157-3.129 2.653-.052 5.308.033 8.42.13" opacity="1.000000"/><path fill="#070606" d="M427.77 106.891c-5.997 1.596-12 3.817-18.365 6.129-.074-1.585.896-2.63 2.459-3.095 3.483-1.035 6.963-1.947 10.042-4.114 1.814-1.276 3.826-.164 5.864 1.08m39.756 65.667c-.229-13.946-.325-28.275-.374-43.068 1.478 2.717.827 6.087.821 9.365-.018 11.107-.197 22.214-.447 33.703m-26.2 408.564c4.483-1.612 9.494-2.442 14.216-5.191-2.535 6.629-8.69 4.756-14.216 5.191m26.171-347.561c-.193-7.944-.247-16.268-.211-25.05 1.268 7.908.822 16.289.21 25.05" opacity="1.000000"/><path fill="#050706" d="M467.766 112.403c2.935-.993 2.908.935 2.747 2.598-.113 1.169-1.055 2.553-2.286 1.985-1.965-.907-1.149-2.763-.46-4.583" opacity="1.000000"/><path fill="#070606" d="M441.62 106.698c-3.325.223-7.009.265-11.15.257 3.247-1.536 7.014-1.155 11.15-.257m25.884 94.898c-.186-2.32-.242-4.994-.21-8.104 1.009 2.267.874 5.003.21 8.104m.276 353.212c-.281-.903-.339-1.957-.277-3.39 1.541.69 1.778 1.884.277 3.39m-40.636 25.452c1.018-.116 2.163.058 3.594.43-1.068 1.223-2.36 1.555-3.594-.43m-24.33-463.296c-.536.786-1.312 1.426-2.385 2.137-.028-1.279.092-2.785 2.385-2.137m50.02-7.365c-1.081-.108-2.332-.518-3.816-1.165 1.196-.347 2.645-.532 3.816 1.165" opacity="1.000000"/><path fill="#050706" d="M465.887 123.274c-.665-.663-1.211-1.637-1.814-2.944 1.865-.19 2.684.694 1.814 2.944" opacity="1.000000"/><path fill="#5495BE" d="M524.247 393.916c-.092-1.029.103-2.202 1.922-2.529-.31.764-.976 1.572-1.922 2.529" opacity="1.000000"/><path fill="#070606" d="M387.744 130.026c.268 1.856-.915 1.848-2.53 1.307.57-.56 1.381-.918 2.53-1.307m60.917-21.999c-1.217-.013-2.74-.268-4.583-.733 1.253-.249 2.854-.46 4.583.733m-14.335 473.271c.779-.212 1.81-.267 3.219-.239-.676.828-1.784 1.012-3.219.24" opacity="1.000000"/><path fill="#63B5C0" d="M498.904 262.593c-.74-.701-.975-1.828-.205-3.289.19.79.233 1.845.205 3.29" opacity="1.000000"/><path fill="#050706" d="M507.954 109.205c-.292.417-.779.68-1.547.967-.06-.82.159-1.665 1.547-.967m-124.17 21.625c-.531.16-1.28.158-2.39.051.463-.613 1.302-.77 2.39-.052" opacity="1.000000"/><path fill="#5495BE" d="M690.841 366.323c.346.237.631.814 1 1.706-.297-.246-.678-.806-1-1.706" opacity="1.000000"/><path fill="#070606" d="M463.125 568.706c.015-.298.213-.769.636-1.372-.001.312-.227.756-.636 1.372" opacity="1.000000"/><path fill="#050706" d="M367.697 130.679c-.179.13-.63.162-1.228-.138.22-.208.588-.085 1.228.138" opacity="1.000000"/><path fill="#070606" d="M467.228 558.844c-.072.093-.148-.346-.06-.549.223.012.237.232.06.55" opacity="1.000000"/><path fill="#5495BE" d="M526.322 391.188c-.052-.288.212-.516.673-.915.013.211-.172.592-.673.915" opacity="1.000000"/><path fill="#070606" d="M464.287 566.708c-.049-.131.054-.465.374-.956.07.146-.077.45-.374.956m-41.958 11.673c.131-.056.486.024 1.016.326-.147.084-.47-.052-1.016-.326m1.958.826c.176-.07.606.03 1.188.433-.21.115-.572-.074-1.188-.433" opacity="1.000000"/><path fill="#3E6ABB" d="M523.078 351.254c.244-.189.461.022.512.53-.154.017-.278-.126-.512-.53" opacity="1.000000"/><path fill="#070606" d="M458.812 113.784c-.197.15-.479-.004-.789-.515.166-.063.41.127.789.515" opacity="1.000000"/><path fill="#5495BE" d="M545.278 418.318c-.033-.15.198-.495.61-1.094.004.13-.171.514-.61 1.094" opacity="1.000000"/><path fill="#070606" d="M399.991 119.188c-.01.164-.23.425-.713.653-.027-.236.228-.41.713-.653" opacity="1.000000"/><path fill="#5495BE" d="M546.289 417.048c-.058-.21.189-.45.616-.874.017.159-.147.502-.616.874m1.008-.983c-.06-.219.19-.457.613-.887.015.161-.144.515-.613.887m.999-1.001c-.06-.217.19-.455.614-.886.014.16-.145.513-.614.886" opacity="1.000000"/><path fill="#070606" d="M405.983 115.188c-.016.137-.246.382-.736.653-.02-.192.24-.382.736-.653" opacity="1.000000"/><path fill="#5495BE" d="M549.294 414.063c-.058-.217.193-.453.616-.885.013.16-.147.512-.616.885" opacity="1.000000"/><path fill="#070606" d="M459.879 114.817c-.133.014-.414-.148-.765-.55.18-.058.408.146.765.55m-52.004-.694c.078.198-.113.413-.611.567-.02-.17.197-.332.611-.567m-15.15 11.054c.046.141-.066.45-.433.844-.104-.187.073-.44.433-.844" opacity="1.000000"/><path fill="#5495BE" d="M550.292 413.06c-.057-.214.196-.45.62-.881.01.156-.151.508-.62.882" opacity="1.000000"/><path fill="#070606" d="M455.816 111.587c-.176.193-.436.09-.72-.373.147-.078.368.069.72.373" opacity="1.000000"/><path fill="#050706" d="M506.022 110.185c-.02.13-.252.364-.74.619-.013-.184.248-.362.74-.62" opacity="1.000000"/><path fill="#070606" d="M454.744 110.819c-.152.044-.544-.094-1.122-.492.17-.07.526.12 1.122.492" opacity="1.000000"/><path fill="#5495BE" d="M551.292 412.061c-.056-.214.197-.45.62-.88.01.155-.15.507-.62.88m1-.999c-.055-.214.198-.45.621-.88.01.155-.151.507-.62.88m1-.999c-.056-.215.198-.45.621-.881.01.155-.151.509-.621.881m1-1.001c-.056-.215.196-.45.62-.882.01.157-.15.51-.62.882" opacity="1.000000"/><path fill="#070606" d="M391.908 126.16c.01.164-.178.452-.63.733-.053-.231.18-.432.63-.733" opacity="1.000000"/><path fill="#070606" d="M461.075 173.664c-.004 10.804-.128 21.126-.125 31.448.01 35.65.062 71.299.175 107.41.013 19.272-.21 38.086.003 56.894.051 4.516-1.315 5.746-5.62 5.525-6.972-.357-14.718 1.66-20.746-.772-5.833-2.354-10.198-8.808-14.667-13.932-3.512-4.026-7.347-5.448-12.613-5.222-9.307.4-18.645.06-27.969.156-2.668.027-4.463-.406-5.99-3.128-2.554-4.557-8.234-6.224-13.078-4.636-4.69 1.537-8.02 6.097-8.001 10.957.018 4.638 3.363 9.181 7.776 10.56 5.1 1.595 10.299.078 13.143-4.513 1.654-2.67 3.506-3.338 6.447-3.286 8.988.162 17.99.232 26.97-.115 3.903-.151 6.561 1.144 9.098 3.9 4.283 4.652 8.91 8.985 13.252 13.585 1.739 1.844 3.58 2.615 6.127 2.557 6.99-.16 13.993.104 20.977-.157 3.592-.135 5.193.727 4.853 4.648-.329 3.8-.046 7.654.042 11.94-.003 5.617-.145 10.777-.146 15.938-.007 45.33.016 90.661.02 135.992.002 18.493-13.741 28.983-31.757 23.915-11.684-3.287-20.457-10.624-26.647-21.034-2.56-4.305-4.63-8.844-6.407-13.533-1.58-4.167-2.564-7.436 2.156-11.029 5.076-3.864 4.002-12.096-.992-16.285-4.97-4.17-12.64-3.298-16.43 1.867-3.872 5.274-2.828 13.017 2.8 16.183 3.457 1.944 4.717 4.43 5.652 8.035 1.202 4.636 3.064 9.19 5.279 13.447 1.775 3.414.512 4.234-2.485 4.937-10.175 2.386-20.5-1.768-27.156-11.605-2.096-3.097-4.269-4.364-8.027-4.583-21.302-1.245-37.924-20.765-36.18-41.955.205-2.49 1.257-3.056 3.432-3.047 10.333.044 20.665.021 30.998-.002 1.794-.004 2.92.66 4.074 2.207 5.065 6.783 11.963 7.953 17.622 3.261 5.314-4.406 5.51-11.919-.012-17.56-2.568-2.625-2.153-4.64-.042-6.819 5.216-5.385 10.603-10.605 15.769-16.036 1.703-1.791 2.66-1.08 4 .272a5528 5528 0 0 0 28.94 29.028c1.337 1.331 1.557 2.839 1.55 4.539-.012 3.166-.163 6.345.067 9.495.213 2.927-.462 4.862-3.222 6.53-4.496 2.718-6.117 7.878-4.696 12.625 1.458 4.871 6.173 8.236 11.366 8.112 4.904-.118 9.228-3.512 10.652-8.36 1.424-4.845-.198-9.904-4.79-12.548-2.746-1.581-3.402-3.345-3.391-6.307.086-24.498.038-48.997-.086-73.495-.015-2.876.476-4.809 3.19-6.542 4.917-3.142 6.391-7.962 4.81-12.996-1.467-4.676-6.073-8.067-10.916-8.039-4.889.028-9.592 3.446-10.997 7.99-1.588 5.138-.01 9.655 4.846 13.034 1.708 1.189 3.106 2.109 3.092 4.573-.095 17.488-.05 34.977-.05 52.43-1.95.811-2.477-.865-3.291-1.68-9.072-9.073-18.084-18.206-27.114-27.322-8.394-8.475-16.854-16.887-25.142-25.464-2.02-2.092-4.08-2.972-6.985-2.954-19.498.125-38.996.095-58.957.167-3.073.8-4.934-.502-6.664-2.2-4.153-4.074-8.537-7.954-12.215-12.455-2.79-3.415-6.078-4.756-10.37-4.828-10.112-.168-11.384-1.289-13.752-11.175-2.61-10.898.504-20.703 5.915-30.018 1.706-2.938 4.6-3.51 7.75-3.547 11.803-.14 23.607-.007 35.41-.08 1.805-.011 3.646.263 6.115-.637-2.817-.74-5.067-.478-7.267-.486-11.638-.047-23.278-.142-34.912.034-4.922.074-8.816-1.029-11.287-6.077-1.504-5.347-3.281-10.171-3.672-15.415-.92-12.35 4.777-22.384 11.569-31.633 10.294-14.02 10.647-13.77 28.227-13.758 12.828.008 25.657.03 38.485-.012 3.947-.012 6.976 1.267 9.726 4.094 6.736 6.927 13.704 13.627 20.424 20.57 1.483 1.533 3.342 3.122 2.366 5.61-.98 2.497-3.416 2.426-5.552 2.452-13.66.171-27.321.186-40.982.006-2.846-.037-5.035-.977-6.82-3.373-1.98-2.654-4.833-4.192-8.26-3.8-4.033.464-6.785 2.745-7.758 6.737-.926 3.798.316 6.995 3.629 9.082 3.431 2.162 6.969 1.935 10.325-.343 1.408-.956 2.348-2.345 3.455-4.154.733-.764 1.25-1.078 2.282-1.397 12.367-.96 24.293-.277 36.64-.527 3.327.86 6.304.975 9.308.972 17.304-.017 34.608-.06 51.911.033 3.853.021 7.617-.586 11.408-.968 5.942-.6 10.65 1.167 14.464 5.896 1.581 1.96 2.91 4.432 5.819 5.125-6.379-9.19-15.603-15.805-22.72-24.78-.55-.278-.776-.378-1.352-.598-.554-.253-.76-.385-1.467-1.023-.664-.67-.826-.835-1.397-1.519-.643-1.081-.872-1.645-1.567-2.234-.427-.227-.608-.3-1.053-.509-.423-.246-.584-.357-1.188-.838a23 23 0 0 1-1.276-1.143l-1.247-1.205a17 17 0 0 1-1.255-1.345c-.53-.672-.654-.855-.976-1.312-10.833-11.286-20.923-22.82-31.95-33.456a138 138 0 0 1-5.239-5.36c-2.791-3.001-2.68-5.92.183-8.763 2.354-2.338 4.347-5.1 7.358-6.685 1.782-.938 2.534-2.562 3.453-4.547 3.869-5.149 7.4-9.88 14.585-9.99 5.646-.087 9.26-5.436 8.204-10.82-.934-4.76-5.615-7.793-10.498-6.803-5.128 1.04-8.503 6.298-6.361 11.424 2.864 6.855-2.791 9.53-5.747 13.475-1.124 1.5-2.875 2.706-4.68 4.217-3.753 3.143-6.128 7.03-9.251 10.258-2.103 2.172-4.426 3.292-7.47 3.31-11.145.065-22.289.042-33.433.011-3.511-.01-5.769-1.63-8.025-4.141-3.586-3.992-8.317-4.404-12.085-1.607-3.598 2.67-4.74 7.128-2.846 11.107 2.64 5.548 10.428 6.86 14.62 1.758 3.45-4.196 7.375-4.986 12.226-4.913 9.313.141 18.633.16 27.945-.007 4.627-.082 8.203 1.237 11.462 4.69 11.638 12.332 24.435 23.54 35.472 36.465 1.727 2.023 3.7 3.827 6.192 5.569.46.38.635.537 1.054.937.388.413.531.585.893 1.004.373.398.528.549 1.212 1.067.722.467.914.569 1.628 1.078.675.577.828.746 1.338 1.526.462.832.567 1.054.835 1.621.287.58.412.813.755 1.392.825.915 1.45 1.465 2.02 2.072 1.407 1.5 2.753 3.1 1.513 5.275-1.08 1.893-2.936 1.687-4.844 1.601-13.626-.61-27.258-.478-41.333-.035-1.631.418-2.824.353-4.443-.023-1.47-.684-2.418-1.403-3.888-2.06-9.519-10.164-19.322-19.444-28.826-29.02-2.688-2.708-5.987-3.306-9.614-3.305-16.327.005-32.654.05-48.98-.014-9.593-.037-12.594-2.406-14.773-11.818-3.066-13.24 2.083-24.13 10.015-34.173.668-.846 1.708-.965 3.089-1.284 4.178-4.495 9.017-7.885 11.965-13.02 1.022-1.782 3.04-.988 4.599-.993 16.492-.06 32.984-.119 49.475.035 3.28.031 5.602-.955 7.882-3.276 8.717-8.872 17.586-17.597 26.475-26.298 1.6-1.567 1.997-3.313 1.983-5.394-.045-6.663.056-13.328-.056-19.99-.042-2.516.49-4.124 2.957-5.565 4.781-2.793 6.42-7.98 4.838-12.97-1.475-4.653-6.05-7.939-10.986-7.89-5.076.05-9.333 3.157-10.919 7.966-1.639 4.973-.024 10.055 4.866 12.919 2.583 1.513 3.304 3.147 3.218 5.91-.207 6.654 1.659 14.063-.702 19.762-2.36 5.697-8.793 9.736-13.527 14.413-4.836 4.777-9.04 11.222-14.886 13.657-5.69 2.37-13.11.608-19.77.62-10.662.017-21.326-.126-31.984.07-3.542.065-4.34-1.218-3.642-4.385.98-4.442 2.326-8.662 5.48-12.125 3.28-3.602 6.885-6.114 12.17-5.456 3.119.389 6.323.097 9.488.089 4.713-.013 8.94-.443 12.356 4.767 3.37 5.142 11.543 4.509 15.95.064 4.417-4.456 4.292-11.682-.28-16.16-4.49-4.398-12.733-4.768-15.892.491-3.138 5.225-7.215 4.76-11.744 4.773-8.788.023-8.572.056-7.238-8.702 5.62-36.909 38.503-51.427 64.32-46.463 4.246.816 6.988-.313 9.89-3.645 10.066-11.56 22.592-18.996 38.08-20.82 5.893-.693 11.683-.16 17.147 2.183 8.067 3.46 11.872 9.905 11.946 18.516.113 12.992.039 25.986.105 39.46" opacity="1.000000"/><path fill="#070606" d="M301.568 427.847c1.783 1.805 3.864 1.162 5.796 1.165 18.16.031 36.32.04 54.478-.088 2.876-.02 4.933.722 6.968 2.888a492 492 0 0 0 18.298 18.446c2.407 2.305 2.913 3.757.131 6.225-4.603 4.085-8.755 8.673-13.228 12.91-2.582 2.448-5.18 4.765-5.041 8.732.006.163-.012.448-.088.474-5.66 1.96-8.295 9.18-14.364 9.544-10.954.654-21.982.285-32.973.07-13.028-.256-22.167-9.984-22.023-22.889.03-2.787 1.04-3.93 3.788-3.897 5.664.069 11.335.187 16.99-.045 3.318-.136 3.963 2.615 5.562 4.324 4.46 4.768 11.104 5.294 16.153 1.167 4.6-3.761 5.386-10.163 1.879-15.29-4.42-6.463-14.185-6.601-18.638.148-1.879 2.848-3.876 3.504-6.891 3.443-7.16-.146-14.324-.08-21.957-.145-3.238 1.068-4.875-.74-6.448-2.464-8.223-9.01-12.888-19.663-14.217-31.736-.39-3.552-1.208-6.749-3.254-9.766-2.298-3.39-1.115-5.7 2.892-6.194 3.406-.42 6.486.01 9.105 2.767 5.029 5.293 10.415 10.247 14.973 15.983.922 1.162 2.117 2.158 2.11 4.228" opacity="1.000000"/><path fill="#BB5A85" d="M302.048 428.206c-6.382-5.806-12.538-11.433-18.12-17.582-3.117-3.434-6.368-4.373-11.647-3.047 7.18 4.92 5.15 12.508 6.742 19.012 2.689 10.987 7.872 20.444 16.704 28.146-.913 4.704-4.063 2.213-6.84 2.17-.352-.035-.767-.11-.975-.147-3.267-.772-4.74-3.025-5.648-6.149-.896-1.992-1.842-3.609-3.042-5.422-.506-.448-.75-.707-1.04-1.235-.053-.262.032-.13.097-.174-1.804-1.316-2.72-3.133-2.822-5.669.013-.746-.112-1.16-.426-1.843-3.043-1.896-4.361-4.61-4.567-7.639-.436-6.427-1.904-12.463-5.724-17.73-1.222-1.687-1.674-3.588-2.252-5.86.04-.388.124-.49.076-.534-1.478-.374-2.262-1.326-2.638-2.694-.26-.948-.445-1.986-.955-2.778-3.502-5.429-5.078-11.083-2.155-17.706.466-1.034.67-1.715.843-2.753-.642-1.667-.853-2.961.51-4.307.607-.315.71-.576.673-1.09-.103-.393-.168-.575-.034-.969.42-.586.641-.96.875-1.665.258-5.482 1.962-10.57.759-16.134.26-3.421 2.814-3.774 5.322-4.605 2.057 4.396 5.037 5.607 9.886 5.442 14.306-.485 28.638-.231 42.96-.265.832-.002 1.665-.003 2.497.014 2.224.047 4.088.672 3.965 3.347-.111 2.418-1.934 2.82-3.917 2.82-4.33.005-8.66-.003-12.99.007-10.824.025-21.649.069-32.474.076-2.029 0-3.905-.054-5.167 2.094-6.286 10.697-8.99 21.747-4.15 33.844 1.091 2.73 2.518 4.249 5.49 3.676 8.536-1.645 14.416 2.191 19.637 8.566 3.881 4.74 8.67 8.737 13.308 13.28 1.398 2.669 4.673 2.068 6.38 4.594-2.952 1.274-5.907.434-9.141.909" opacity="1.000000"/><path fill="#070606" d="M434.757 411.162c1.515 4.06.127 6.687-3.521 7.618-3.061.78-5.64-.414-6.433-3.849-.766-3.321.77-5.488 3.843-6.559 2.628-.916 4.469.417 6.111 2.79m-105.679 47.676c1.647-5.715 5.584-7.652 8.872-4.719 1.726 1.54 2.556 3.516 1.781 5.786-.763 2.233-2.605 3.53-4.852 3.665-2.977.177-4.953-1.433-5.801-4.732m37.172 28.309c4.12-2.231 6.909-.852 8.337 2.786 1.147 2.924-.35 5.15-3.256 6.327-3.031 1.226-5.268.058-6.713-2.57-1.288-2.342-.588-4.512 1.633-6.543m23.644 38.484c-3.754-.746-5.627-2.694-5.064-6.298.439-2.808 2.239-4.302 5.087-4.4 2.91-.101 4.737 1.504 5.324 4.164.871 3.947-1.59 5.67-5.347 6.534m38.499-1.673c-3.232-1.523-4.073-3.906-3.163-6.753.804-2.514 2.947-3.488 5.473-3.463 2.507.026 3.91 1.644 4.699 3.797 1.396 3.812-1.211 6.35-7.01 6.42" opacity="1.000000"/><path fill="#050706" d="M321.472 525.448c-5.025 1.558-9.588-1.711-9.684-7-.055-3.018 2.648-2.143 4.809-2.446 1.841 3.034 3.297 6.07 4.875 9.446" opacity="1.000000"/><path fill="#070606" d="M395.59 561.994c-1.426 3.399-4.03 3.743-7.374 1.639 2.197-.73 4.585-1.181 7.375-1.64" opacity="1.000000"/><path fill="#050706" d="M294.877 476.675c-3.568-.046-5.379-1.155-1.643-4.549.787 1.333 1.216 2.777 1.643 4.549" opacity="1.000000"/><path fill="#070606" d="M410.04 570.598c-2.689.342-4.531-.852-4.99-4.171 1.593 1.054 3.214 2.469 4.99 4.17" opacity="1.000000"/><path fill="#050706" d="M292.786 462.346c-3.052.348-4.55-1.199-4.573-4.62 1.75.937 3.582 2.195 4.573 4.62" opacity="1.000000"/><path fill="#070606" d="M404.806 565.681c-2.116.2-3.62-.69-3.568-3.581 2.038.029 1.84 2.492 3.568 3.581m-25.022-3.03c-1.136 1.21-2.464 1.692-3.494-.653 1.03-.067 2.128.189 3.494.653" opacity="1.000000"/><path fill="#050706" d="M350.784 545.817c.053 1.035.161 2.365-1.037 2.296-1.327-.077-1.134-1.147-.396-2.283.537-.2.878-.182 1.433-.013" opacity="1.000000"/><path fill="#070606" d="M401.139 561.46c-1.164.335-2.452.395-4.228.44.945-.888 2.333-2.05 4.228-.44m-16.517 1.769c-.367 1.666-1.27 1.413-2.409.15.581-.217 1.316-.231 2.409-.15m29.38 10.348c-1.073.267-2.179.03-2.762-1.641.808.23 1.706.796 2.762 1.641m-40.05-12.818c-.13.08-.347-.04-.699-.295.144-.169.393-.091.699.295m2.195.881c-.171.135-.443.017-.883-.258.158-.207.475-.153.883.259" opacity="1.000000"/><path fill="#030707" d="M624.49 472.494c2.085 2.758 1.994 5.231-.01 7.475-1.402 1.568-3.24 2.254-5.354 1.389-3.213-1.315-4.942-3.765-3.476-7.01 1.753-3.88 4.952-4.448 8.84-1.854m-55.156 60.055c-2.74-2.447-3.126-5-1.22-7.697 1.553-2.198 3.889-2.389 6.234-1.687 2.332.699 3.359 2.587 3.447 4.91.153 4.002-2.998 5.782-8.46 4.474m30.275-19.169c-.387-3.08.39-5.317 3.143-6.294 2.123-.754 4.257-.603 5.93 1.171 1.631 1.729 1.966 3.78 1.04 5.945-1.825 4.265-6.675 4.023-10.113-.822m-5.548-287.423c3.742-1.838 6.447-1.17 8.083 2.347 1.338 2.879.154 5.136-2.242 6.788-2.444 1.685-4.881 1.048-6.639-.996-2.246-2.612-1.97-5.413.798-8.14m8.298-24.381c-3.43-1.31-4.788-3.617-4.115-6.792.49-2.31 2.25-3.652 4.596-3.986 2.666-.38 4.513.957 5.617 3.234 1.69 3.486-.604 6.478-6.098 7.544m-34.12-12.209c-4.177 1.024-6.515-.702-7.21-4.347-.608-3.181 1.391-5.07 4.254-5.732 3.053-.707 5.162.835 6.109 3.73.924 2.826-.438 4.776-3.153 6.349" opacity="1.000000"/><path fill="#050706" d="M565.948 124.375c2.474-.688 4.39-5.197 6.593-3.271 2.835 2.478-3.01 3.668-2.508 6.834-1.336-.844-2.636-2.055-4.085-3.563m5.275 5.485c.94-.379 1.894-.107 2.572 1.336-1.143.735-1.755-.163-2.572-1.337m6.181 1.086c.578-.293 1.542-.527 2.886-.732-.385 1.022-1.495.71-2.886.732m-23.654-15.598c.154-.07.473.094 1.009.413-.137.045-.492-.068-1.01-.413m-10.269-4.994c.184-.107.569.056 1.224.376-.16.068-.592-.02-1.225-.376" opacity="1.000000"/><path fill="#C96C67" d="M266.071 349.407c-.021 3.375-1.538 4.556-4.749 4.024-.601.384-.913.72-.978.415.247-.643.278-.847.177-.87-3.959-1.3-4.788-3.847-3.001-7.792.075-1.103-.046-1.824-.353-2.866-4.191-5.034-4.36-11.565-.23-17.004.533-.608.689-.92.803-1.497-.922-2.887-2.19-5.577 1.706-7.39 1.745-2.455 3.034-4.938 4.398-7.776-.522-3.915 1.18-6.151 4.513-7.348 2.086-1.84 3.911-3.932 5.88-6.314-.399-1.98 1.638-3.152 1.03-5.196-1.087-2.412-2.145-4.476-3.39-6.8-4.196-1.248-3.932-4.585-3.731-7.45.362-5.142.624-10.254-.04-15.38-.043-.332-.179-.751-.024-.98 3.625-5.365 3.65-12.822 10.154-16.843.649-.144.79-.283.83-.657.104-.659.337-1.108.882-1.826.203-.326.634-.157.743-.362-.824-1.049-.166-1.7.647-2.538.484-.228.692-.285 1.533-.242 2.92.228 3.932 1.78 4.835 3.973-3.63 5.918-7.788 11.33-10.121 17.855-2.839 7.937-2.482 15.586 1.14 23.243 1.558 3.293 3.596 4.621 7.277 4.595 18.312-.129 36.627.064 54.939-.087 3.644-.03 6.165 1.055 8.692 3.687 9.222 9.605 18.705 18.958 28.234 28.707.679.88.875 1.711 1.833 2.271 1.364.221 2.443.358 3.914.612 12.007.817 23.635.24 35.256.429 1.494.024 2.993-.072 4.48.118 1.277.163 2.193.8 2.272 2.185.093 1.635-.844 2.413-2.376 2.59-1.49.172-2.988.097-4.482.104-19.27.101-38.54-.192-58.275.276-13.06.294-25.653.462-38.866 1.035-3.257 6.056-7.752 8.655-13.265 7.717-4.669-.794-8.798-5.123-9.383-9.835-.62-4.993 2.455-10.111 7.194-11.974 4.98-1.958 10.58-.57 13.667 4.21 1.744 2.7 3.6 3.262 6.488 3.222 13.327-.182 26.657-.156 39.986-.257 1.402-.01 2.969.522 5.242-1.724-9.14-8.764-18.215-17.484-27.32-26.173-1.191-1.137-2.802-.916-4.287-.92-17.16-.046-34.322-.065-51.483-.125-1.554-.006-2.742.303-4.001 1.448-9.672 8.794-17.327 19.18-20.801 31.688-2.109 7.591-.78 15.858 2.411 23.822" opacity="1.000000"/><path fill="#050706" d="M278.242 242.233c-2.587 5.14-5.709 10.163-7.461 15.946-2.448 8.076-2.283 15.948.876 24.163-2.259.189-4.256 3.854-6.073 1.904-1.784-1.913.52-4.618 1.031-6.989 1.2-5.57 3.334-11.202-1.032-16.522-1.072-1.306-.161-2.8.906-4.008 1.425-1.61 2.822-3.252 4.12-4.964 1.178-1.554 1.89-3.112-1.194-3.063-1.335.02-2.91.31-2.824-1.717.063-1.506 1.29-2.294 2.616-2.651 2.853-.772 5.74-1.42 9.035-2.099m-15.827 162.834c8.814 7.94 9.41 19.555 12.42 30.566-3.633.334-5.284-3.954-9.107-3.869-.736.016-.833-1.958-.104-2.588 5.113-4.419 1.04-8.833-.167-13.012-1.028-3.556-3.736-6.615-3.042-11.097m31.678-195.699c-.052.757-.061 1.212-.195 1.9-.261 1.122-.398 2.009-.561 3.345-1.033 3.436-1.077 6.469-.526 9.95-7.53-1.964-8.85-6.73-3.66-12.466.634-.7 1.522-1.7 1.423-2.448-.498-3.78 1.85-2.981 4.309-2.664.32.214.294.405.104.837-.408.564-.638.899-.894 1.546M256.87 381.26c.16 7.732 1.631 15.405 5.548 22.868-.398.321-1.233.49-1.343.28-2.647-5.052-6.247-9.404-9.668-13.92-1.242-1.64-.488-4.374 2.102-5.305 1.827-.656 2.392-2.177 3.361-3.924m.05-56.213c-.24 5.352-.332 10.74.11 16.543-6.263-.11-6.273-.112-5.172-7.405.536-3.55-.777-8.068 5.062-9.138m3.423 28.411c.248-.254.496-.159.593-.069 4.935 5.796 1.954 11.022-1.068 16.54-2.688-4.297-2.224-9.232-1.724-14.118.078-.758 1.273-1.401 2.199-2.353" opacity="1.000000"/><path fill="#050706" d="M261.534 277.324c-2.867-.047-2.655-1.976-2.295-3.483.519-2.175 1.061-4.612 2.932-5.976 1.192-.87 2.016.64 2.352 1.72.981 3.157.286 5.803-2.99 7.74m-4.13 67.686c1.171 2.27 2.03 4.75 2.953 7.586-.744.367-1.555.42-2.361.377-1.587-.084-3.459.203-4.203-1.66-.611-1.53.502-2.781 1.353-3.947.566-.776 1.292-1.435 2.258-2.356m2.12-28.686c-.249 2.276-.878 4.421-1.665 6.896a7.14 7.14 0 0 1-2.49-2.105c-1.204-1.632-2.025-3.713-.89-5.412 1.453-2.176 3.067.409 5.045.62m23.323-78.469c-.746.47-1.2.844-1.85 1.326-1.515-.634-3.041-1.514-2.351-3.24 1.027-2.57 3.542-1.744 5.988-1.897-.02.733-.453 1.454-1.008 2.474-.121.298.097.586.247.487-.11.22-.407.501-1.026.85m-14.404 63.392c-1.231 2.424-2.64 4.541-4.284 6.854-2.669-1.912-1.184-3.937.137-5.68.866-1.142 1.668-3.696 4.147-1.174" opacity="1.000000"/><path fill="#C96C67" d="M292.849 225.3c0-3.38.09-6.44.321-9.868-.45 3.854 1.62 8.198-.699 12.512-.018-.67.225-1.498.378-2.645" opacity="1.000000"/><path fill="#050706" d="M259.296 300.967c-1.757.484-3.23.41-1.977-1.561.716-1.126 2.292-1.706 3.756-2.723.977 2.144-.469 3.063-1.779 4.284m22.963 149.708c1.76 1.506 3.465 3.453 5.307 5.723-3.952.67-5.638-1.344-5.307-5.724m3.738-221.037c-1.615.145-3.018-.358-2.581-2.391.108-.507.927-1.327 1.23-1.25 1.785.45 1.146 2.063 1.35 3.641m-10.64 208.373c1.107 1.537 1.974 3.306 2.915 5.4-2.464-.647-4.286-2.038-2.915-5.4m-18.579-128.344c.9-.785 1.773-1.6 2.43-.317.392.764-.202 1.612-.983 1.912-1.192.457-1.796-.05-1.447-1.595m.789 105.196c.942.695 1.063 1.416.348 2.049-.556.492-1.207.307-1.47-.379-.317-.822-.134-1.532 1.122-1.67m12.878-124.467c-.197.986-.672 1.32-1.396.852-.179-.115-.287-.642-.179-.847.37-.696.912-.884 1.575-.005m-12.221 83.86c.121 1.05-.103 2.184-.462 3.64-1.489-1.065-2.182-2.406.462-3.64m16.845-84.395c2.863 1.374 1.71 2.945-.397 4.658-.618-1.352-.373-2.818.397-4.658m-15.389-30.908c-.247-.635-.137-1.014.47-1.02.109 0 .289.168.315.285.12.523-.049.866-.785.735m28.978-28.912c-.425.937-1.229 1.858-2.32 2.891-.304-.648-.32-1.408-.339-2.547-.002-.38.002-.384.004-.386.76.008 1.519.018 2.655.043m3.123 251.123c.084-.176.24-.27.398-.363-.108.148-.215.297-.397.363M247.78 324.163c.084-.175.24-.269.398-.362-.108.148-.215.297-.397.362m48.256-119.272c.028.193-.104.757-.62 1.524-.104-.25.177-.7.62-1.524m-10.175 28.299c.012.134-.162.419-.58.786-.057-.178.156-.417.58-.785m-26.946 138.905c.097.069.103.239-.002.639-.24-.033-.232-.289.002-.639m30.959-142.908c.014.138-.159.424-.58.782-.059-.186.156-.42.58-.782m-9.887 10.689c.007.157-.148.66-.624 1.407-.06-.19.201-.626.624-1.407m-1.742 204.045c.145.014.408.261.697.788-.176.001-.378-.278-.697-.788m12.841-215.642c-.015.132-.26.392-.781.718 0-.152.275-.37.78-.717" opacity="1.000000"/><path fill="#070606" d="M345.36 190.858c3.436-.369 5.564.93 6.474 3.809.638 2.017.092 3.923-1.534 5.397-1.637 1.484-3.559 1.672-5.544.963-2.03-.725-3.28-2.319-3.546-4.392-.366-2.852 1.235-4.63 4.15-5.777m41.519-28.435c-4-.594-6.186-2.685-5.48-6.437.55-2.931 2.862-4.388 5.94-3.978 2.555.34 4.332 1.85 4.608 4.45.357 3.362-1.576 5.188-5.068 5.965" opacity="1.000000"/><path fill="#030707" d="M294.311 209.481c-.1-.175.06-.54.365-1.162.063.152-.021.563-.365 1.162" opacity="1.000000"/><path fill="#C96C67" d="M293.798 211.528c-.025-.025.172.186.04.157-.132-.03-.015-.133-.04-.157" opacity="1.000000"/><path fill="#030707" d="M528.386 302.898c-2.803-3.687-2.576-6.762 1.23-8.996 2.997-1.759 5.44-.565 7.174 2.147 1.32 2.062.948 4.198-.56 5.976-2.125 2.502-4.733 2.765-7.844.873" opacity="1.000000"/><path fill="#050706" d="M647.543 175.388c1.795-1.43 2.09-.187 2.265 1.053.094.666-.122 1.524-.939 1.441-1.221-.123-1.397-1.19-1.326-2.494m4.467 12.715c-1.072.368-1.773.053-2.04-.818-.06-.192.532-.84.817-.834.866.015 1.526.43 1.223 1.652M380.965 571.272c-.068-.181-.025-.358.019-.535.031.18.062.36-.019.535m-27.185-21.109c.084-.175.24-.269.398-.362-.108.148-.216.297-.397.362M544.107 105.55c1.11.219 1.915.33 2.7.524 1.07.266 2.704.494 2.07 1.951-.58 1.337-1.932.403-2.95-.062-1.167-.532-2.819-.68-3.435-1.567-.794-1.143.639-.854 1.615-.846" opacity="1.000000"/><path fill="#030707" d="M643.014 263.218c-.158 4.231-2.169 6.265-6.005 5.873-2.967-.303-4.82-2.213-4.914-5.268-.097-3.142 1.86-4.962 4.756-5.398 3.258-.49 5.315 1.22 6.163 4.793M532.2 144.81c3.363 2.09 4.05 4.785 2.272 7.804-1.297 2.201-3.494 3.026-6.035 2.146-2.683-.929-4.177-2.834-3.594-5.709.768-3.78 3.317-5.09 7.357-4.24m121.008 277.842c-5.791.54-8.804-2.144-7.469-6.213.808-2.46 2.543-3.887 5.114-4.015 2.39-.118 4.134 1.078 5.068 3.281 1.247 2.941.13 5.123-2.713 6.947M536.977 516.93c.832 3.278.085 5.63-2.785 6.939-2.142.975-4.258.734-5.997-.93-1.747-1.673-1.979-3.804-1.186-5.973 1.536-4.205 5.888-4.346 9.968-.037" opacity="1.000000"/><path fill="#070606" d="M360.448 354.114c5.12-1.748 7.818-.765 8.562 2.874.518 2.535-.3 4.623-2.607 5.93-2.306 1.309-4.579 1.1-6.334-.903-2.176-2.483-1.97-5.128.379-7.901" opacity="1.000000"/><path fill="#030707" d="M542.78 263.966c-.829 3.9-3.092 5.474-6.591 4.832-2.28-.419-3.875-1.89-4.14-4.375-.312-2.908 1.098-4.986 3.737-5.744 4.103-1.177 6.23 1.04 6.994 5.287m28.383 77.045c-3.393-.645-5.003-2.53-4.959-5.548.037-2.551 1.438-4.36 3.925-5.077 2.284-.657 4.225.121 5.714 1.919 2.935 3.542 1.038 7.38-4.68 8.706m86-.707c-4.33 1.871-7.335.783-8.483-3.408-.902-3.291 1.035-5.377 4.16-6.242 2.334-.646 4.366.135 5.593 2.188 1.522 2.548 1.342 5.062-1.27 7.462m-21.289 37.043c3.395 4.526 2.622 8.575-1.54 9.686-2.272.607-4.364.142-5.8-1.816-1.366-1.862-1.784-3.935-.408-6.036 1.87-2.853 4.465-3.142 7.748-1.834m-112.401 57.576c3.008 1.296 3.866 3.456 3.537 6.19-.243 2.018-1.433 3.32-3.38 3.83-2.229.584-4.337.315-5.889-1.553-1.375-1.657-1.697-3.609-.732-5.577 1.24-2.533 3.3-3.593 6.464-2.89m-.346-98.943c3.705-2.029 6.474-1.284 8.164 2.103 1.511 3.028.262 5.488-2.504 7.08-2.81 1.616-5.192.44-6.89-1.873-1.826-2.486-1.275-4.951 1.23-7.31" opacity="1.000000"/><path fill="#C96C67" d="M419.816 308.204c-14.998-14.778-29.732-29.435-44.273-44.282-2.433-2.484-4.81-3.52-8.254-3.46-10.476.184-20.959.095-31.437-.023-2.874-.033-4.784.493-6.357 3.412-2.413 4.476-7.734 6.181-12.532 4.914-4.743-1.252-8.35-5.683-8.565-10.516-.208-4.684 2.738-9.258 7.119-11.055 4.881-2.003 10.302-.948 13.312 3.664 2.134 3.268 4.61 3.605 7.9 3.563 9.647-.124 19.3-.235 28.942.019 4.03.106 6.934-1.124 9.502-4.163 2.569-3.038 5.546-5.73 8.62-8.734 1.714.475 2.737-.32 3.898-1.038 1.438-.888 2.847-.82 3.523 1.334-3.654 4.041-6.991 7.965-10.768 11.405-2.897 2.64-2.857 4.32-.05 7.1 12.602 12.486 24.977 25.2 37.579 38.128.276.648.471.962.994 1.345.255.116.097.113.1.034.136.279.346.583.892.947.258.112.115.121.112.05.132.283.343.586.886.951.258.115.115.123.111.051.137.282.346.588.89.957.255.119.104.126.1.05.142.28.362.58.9.96.254.125.16.1.174.054.42 1.23 1.127 2.248 2.72 2.883.292.13.203.16.188.115.158.28.38.567.89.951.238.138.103.143.101.076.17.256.391.541.898.924.236.137.162.116.174.08 1.024 2.514 1.322 4.695-2.952 4.599-.48-.16-.355-.252-.31-.188-.032-.383-.245-.75-.924-1.077-.327-.04-.095-.062-.085.054-.023-.336-.207-.71-.886-1.064-.32-.07-.088-.093-.078.024-.057-.323-.27-.678-.921-1.03-.314-.068-.084-.088-.075.027-.064-.32-.27-.678-.925-1.026-.314-.068-.09-.178-.035-.065-.12-.305-.395-.64-1.098-.95" opacity="1.000000"/><path fill="#BB5A85" d="M332.73 397.116c-2.324.28-2.347 2.115-3.144 3.285-2.87 4.21-8.187 6.19-13.225 4.613-4.779-1.494-7.391-4.98-7.915-9.898-.519-4.874 2.55-9.634 7.16-11.483 4.706-1.887 10.295-.941 12.98 3.388 2.284 3.679 5.023 4.01 8.682 3.971 12.997-.139 25.996-.08 38.995-.042 2.553.008 4.49-.101 6.116-2.91 2.73-4.71 8.24-6.356 13.065-4.85 4.438 1.384 7.845 5.868 7.967 10.486.13 4.918-3.134 9.66-7.695 11.179-4.964 1.653-10.215.238-13.168-4.447-1.82-2.885-3.862-3.431-6.897-3.403-14.164.13-28.33.078-42.922.111" opacity="1.000000"/><path fill="#DA995E" d="M427.35 251.241c-.121-8.957-.18-17.66-.178-26.831.638-5.153.212-9.853.175-14.943-.166-10.222-.257-20.046-.232-29.87.005-2.308-.395-3.792-2.724-5.175-5.112-3.035-6.75-8.177-5.012-13.343 1.516-4.503 5.9-7.668 10.644-7.682 4.987-.014 9.525 3.233 11.027 7.89 1.7 5.273.075 10.072-5.252 13.153-2.592 1.499-2.727 3.315-2.723 5.704.028 15.656.002 31.313-.069 47.437-1.052 8.348-.315 16.26-.471 24.157-.065 3.235-.72 5.332-4.913 3.543-.376-1.08-.42-1.814-.398-2.911.106-.533.147-.703.126-1.129" opacity="1.000000"/><path fill="#BB5A85" d="M424.811 313.639c1.877-.715 3.167-1.79 3.264-4.383 8.975 8.558 17.928 17.491 26.825 26.479 1.445 1.46 2.749 3.229.637 5.137-1.959 1.768-3.667.743-5.211-.8-.236-.235-.523-.437-.7-.71-6.845-10.58-16.686-12.605-28.728-12.038-19.95.94-39.975.282-60.422.186 1.22-2.09 3.525-1.474 5.61-1.48 17.275-.052 34.55-.039 51.825-.056a67 67 0 0 0 4.478-.14c.855-.06 1.757-.407 1.69-1.411-.066-.988-1.021-1.22-1.861-1.277a60 60 0 0 0-3.982-.12c-9.468-.014-18.936.005-28.404-.034-1.795-.007-3.68.366-5.57-1.053 13.15-.381 26.557-.489 39.963-.667 2.076-.027 4.24.469 6.802-.816-2.142-2.297-4.11-4.407-6.216-6.817" opacity="1.000000"/><path fill="#DA995E" d="M391.39 242.002c-1.621-.929-2.642-.124-3.683.672-1.426 1.09-2.62 1.03-3.53-1.023a167 167 0 0 1 9.164-10c1.343-1.351 1.607-2.325.662-4.238-2.737-5.534-1.687-10.24 2.574-13.871 3.734-3.182 9.251-3.488 13.435-.747 4.092 2.681 6.069 8.029 4.689 12.683-1.486 5.008-6.157 8.256-11.81 8.059-5.984-.21-7.468 5.535-11.5 8.465" opacity="1.000000"/><path fill="#C96C67" d="M427.161 255.274c3.966.132 4.85-1.941 4.91-5.338.126-7.053-.61-14.132.692-21.524.253 8.091.379 16.545.364 25-.003 2.167.488 3.457 2.619 4.651 4.994 2.798 6.82 7.951 5.286 13.195-1.348 4.606-5.872 7.928-10.85 7.967-4.924.038-9.589-3.23-11.066-7.75-1.668-5.106.211-10.12 4.975-13.413 1.048-.724 2.568-.908 3.07-2.788m-.024-45.754c1.392 4.235.975 8.963.267 14.057-.233-4.293-.296-8.95-.267-14.058" opacity="1.000000"/><path fill="#BB5A85" d="M426.018 306.6c-1.457.256-2.654-.26-2.853-2.418.896.473 1.81 1.303 2.853 2.417m-46.161 14.181c-1.415.925-1.629-.135-1.83-1.512.556.23 1.13.74 1.83 1.512m40.891-11.343c.183-.036.478.213.954.693-.16.018-.5-.194-.954-.693m7.315-.742c-.163.026-.43-.21-.864-.657.141-.008.45.193.864.657m-8.407-.268c.171-.045.51.191 1.08.633-.149.02-.53-.166-1.08-.633m7.409-.733c-.163.026-.431-.211-.868-.66.142-.008.453.194.868.66m-3.96-4.019c-.164.025-.437-.217-.879-.676.145-.008.458.2.88.676m-.999-1.013c-.163.025-.435-.214-.873-.668.144-.009.454.198.873.668m-1-1.01c-.162.025-.433-.211-.871-.662.143-.01.453.195.871.662m-.997-1.003c-.163.025-.434-.211-.873-.662.143-.01.453.196.872.662m-.989-.979c-.16.018-.422-.226-.843-.687.142-.002.44.211.843.687m-98.019 28.982c-.098.06.07-.308.102-.404s-.003.343-.102.404" opacity="1.000000"/><path fill="#C96C67" d="M427.215 251.241c.304-.029.366.236.166.652-.141-.056-.19-.226-.166-.652" opacity="1.000000"/><path fill="#BB5A85" d="M423.714 312.48c.185-.044.491.197.985.667-.163.025-.513-.178-.985-.667m-.979-1.037c.184-.032.474.226.937.722-.163.015-.496-.209-.937-.722m-.988-1.007c.183-.036.478.215.953.697-.16.017-.5-.196-.953-.697" opacity="1.000000"/><path fill="#070606" d="M309.23 330.077c-3.537-1.21-4.722-3.544-4.02-6.681.514-2.299 2.335-3.673 4.561-3.999 2.589-.379 4.39 1.145 5.5 3.366 1.765 3.532-.595 6.573-6.04 7.314" opacity="1.000000"/><path fill="#DA995E" d="M282.79 237.766c.032-.161.3-.509.9-.858 0 .222-.331.447-.9.858" opacity="1.000000"/><path fill="#070606" d="M324.79 255.669c.818 3.302-.001 5.647-2.798 6.933-1.94.892-3.883.486-5.534-.893-1.873-1.563-2.208-3.617-1.489-5.812 1.365-4.164 5.995-4.43 9.821-.228m-7.558 143.223c-2.534-1.903-3.341-4.062-2.251-6.732.73-1.788 2.012-3.026 4.004-3.281 2.341-.3 4.262.479 5.474 2.557 1.075 1.846 1.214 3.844-.05 5.612-1.705 2.386-3.953 3.468-7.177 1.844m71.802-9.312c2.25-1.046 4.223-1.153 5.944.13 2.593 1.933 3.48 4.602 1.547 7.31-1.99 2.784-4.961 3.441-7.74 1.17-3.157-2.58-3.13-5.557.25-8.61m38.115-229.246c3.116-1.515 5.54-.95 7.388 1.475 1.46 1.917 1.466 4.035.032 6.001-1.418 1.945-3.447 2.566-5.74 2.077-4.245-.906-5.089-4.964-1.68-9.553m-23.925 67.353c-3.443-1.02-5.14-3.025-4.712-6.32.302-2.328 1.703-3.928 4.094-4.377 2.325-.437 4.242.352 5.607 2.3 2.46 3.51.615 6.87-4.99 8.397m21.605 38.773c2.173-4.08 5.046-5.298 8.623-2.642 1.999 1.484 2.623 3.795 1.54 6.226-1.178 2.645-3.397 3.555-6.099 3.035-3.376-.649-4.456-3.027-4.064-6.618" opacity="1.000000"/></svg>